<svg width="157" height="157" viewBox="0 0 157 157" fill="none" xmlns="http://www.w3.org/2000/svg">
<path d="M82.2721 82.3456C95.6038 69.0139 109.103 58.4116 120.136 52.0414C125.658 48.8535 130.524 46.7478 134.419 45.8738C138.357 44.9903 141.07 45.4116 142.575 46.9167C144.08 48.4217 144.502 51.1352 143.618 55.0729C142.744 58.9682 140.638 63.8341 137.45 69.3557C131.08 80.3889 120.478 93.8881 107.146 107.22C93.8146 120.551 80.3154 131.154 69.2822 137.524C63.7606 140.712 58.8947 142.818 54.9994 143.692C51.0617 144.575 48.3482 144.154 46.8432 142.649C45.3381 141.144 44.9168 138.43 45.8003 134.492C46.6743 130.597 48.7801 125.731 51.9679 120.21C58.3381 109.176 68.9404 95.6773 82.2721 82.3456Z" stroke="#00154C" stroke-width="1.5"/>
<path d="M66.0627 66.1356C79.3944 52.8039 92.8936 42.2016 103.927 35.8315C109.448 32.6436 114.314 30.5379 118.21 29.6639C122.147 28.7804 124.861 29.2016 126.366 30.7067C127.871 32.2118 128.292 34.9253 127.409 38.8629C126.535 42.7582 124.429 47.6242 121.241 53.1457C114.871 64.1789 104.269 77.6781 90.937 91.0098C77.6053 104.342 64.106 114.944 53.0728 121.314C47.5513 124.502 42.6853 126.608 38.79 127.482C34.8524 128.365 32.1389 127.944 30.6338 126.439C29.1287 124.934 28.7075 122.22 29.591 118.283C30.465 114.387 32.5707 109.521 35.7586 104C42.1287 92.9665 52.731 79.4673 66.0627 66.1356Z" stroke="#00154C" stroke-width="1.5"/>
<path d="M48.9269 49.0003C62.2586 35.6687 75.7578 25.0663 86.791 18.6962C92.3125 15.5083 97.1785 13.4026 101.074 12.5286C105.011 11.6451 107.725 12.0664 109.23 13.5714C110.735 15.0765 111.156 17.79 110.273 21.7277C109.399 25.6229 107.293 30.4889 104.105 36.0104C97.7351 47.0437 87.1328 60.5429 73.8011 73.8746C60.4694 87.2063 46.9702 97.8086 35.9369 104.179C30.4154 107.367 25.5494 109.472 21.6542 110.346C17.7165 111.23 15.003 110.809 13.4979 109.303C11.9929 107.798 11.5716 105.085 12.4551 101.147C13.3291 97.252 15.4348 92.386 18.6227 86.8645C24.9929 75.8313 35.5952 62.332 48.9269 49.0003Z" stroke="#00154C" stroke-width="1.5"/>
<circle cx="77.1207" cy="132.12" r="2.62071" transform="rotate(-180 77.1207 132.12)" fill="white" stroke="#D0EA76"/>
</svg>
