<svg width="106" height="109" viewBox="0 0 106 109" fill="none" xmlns="http://www.w3.org/2000/svg">
<mask id="path-1-inside-1_2606_11463" fill="white">
<path fill-rule="evenodd" clip-rule="evenodd" d="M33.1286 18.4091C32.0617 18.695 31.4285 19.7916 31.7144 20.8586L36.8904 40.1755L15.4615 34.4336C14.3946 34.1478 13.2979 34.7809 13.012 35.8479L8.94969 51.0086C8.66381 52.0755 9.29697 53.1722 10.3639 53.4581L42.7766 62.143L51.4616 94.5561C51.7475 95.6231 52.8442 96.2562 53.9111 95.9703L69.0719 91.908C70.1388 91.6221 70.772 90.5255 70.4861 89.4585L64.7441 68.0292L84.0615 73.2053C85.1284 73.4912 86.2251 72.858 86.511 71.7911L90.5733 56.6303C90.8592 55.5634 90.226 54.4667 89.1591 54.1808L71.9364 49.566L84.1251 37.3773C84.9061 36.5963 84.9061 35.33 84.1251 34.5489L73.0266 23.4505C72.2456 22.6694 70.9793 22.6694 70.1982 23.4505L56.4761 37.1726L50.7389 15.761C50.453 14.6941 49.3563 14.0609 48.2894 14.3468L33.1286 18.4091Z"/>
</mask>
<path d="M31.7144 20.8586L29.7826 21.3762L29.7826 21.3762L31.7144 20.8586ZM33.1286 18.4091L32.611 16.4772L32.611 16.4772L33.1286 18.4091ZM36.8904 40.1755L36.3727 42.1073L39.7188 43.0039L38.8222 39.6579L36.8904 40.1755ZM15.4615 34.4336L15.9791 32.5018L15.9791 32.5018L15.4615 34.4336ZM13.012 35.8479L11.0802 35.3302L13.012 35.8479ZM8.94969 51.0086L10.8815 51.5263L10.8815 51.5263L8.94969 51.0086ZM10.3639 53.4581L9.84627 55.39L9.84627 55.39L10.3639 53.4581ZM42.7766 62.143L44.7084 61.6254L44.4096 60.5101L43.2942 60.2112L42.7766 62.143ZM51.4616 94.5561L53.3935 94.0385L51.4616 94.5561ZM53.9111 95.9703L54.4287 97.9022L54.4288 97.9022L53.9111 95.9703ZM69.0719 91.908L69.5895 93.8399L69.5895 93.8399L69.0719 91.908ZM70.4861 89.4585L72.4179 88.9409L70.4861 89.4585ZM64.7441 68.0292L65.2617 66.0974L61.9157 65.2008L62.8123 68.5469L64.7441 68.0292ZM84.0615 73.2053L84.5791 71.2735L84.5791 71.2735L84.0615 73.2053ZM86.511 71.7911L84.5791 71.2735L84.5791 71.2735L86.511 71.7911ZM90.5733 56.6303L92.5051 57.148L92.5051 57.148L90.5733 56.6303ZM89.1591 54.1808L88.6414 56.1127L88.6414 56.1127L89.1591 54.1808ZM71.9364 49.566L70.5222 48.1518L68.0727 50.6013L71.4187 51.4979L71.9364 49.566ZM84.1251 37.3773L85.5393 38.7916L84.1251 37.3773ZM84.1251 34.5489L85.5393 33.1347L85.5393 33.1347L84.1251 34.5489ZM73.0266 23.4505L71.6124 24.8647L71.6124 24.8647L73.0266 23.4505ZM70.1982 23.4505L68.784 22.0363L70.1982 23.4505ZM56.4761 37.1726L54.5442 37.6902L55.4408 41.0363L57.8903 38.5868L56.4761 37.1726ZM50.7389 15.761L48.807 16.2786L48.807 16.2786L50.7389 15.761ZM48.2894 14.3468L48.807 16.2786L48.2894 14.3468ZM33.6463 20.3409L33.6463 20.3409L32.611 16.4772C30.4771 17.049 29.2108 19.2424 29.7826 21.3762L33.6463 20.3409ZM38.8222 39.6579L33.6463 20.3409L29.7826 21.3762L34.9585 40.6931L38.8222 39.6579ZM37.408 38.2436L15.9791 32.5018L14.9439 36.3655L36.3727 42.1073L37.408 38.2436ZM15.9791 32.5018C13.8453 31.93 11.6519 33.1964 11.0802 35.3302L14.9439 36.3655L14.9439 36.3655L15.9791 32.5018ZM11.0802 35.3302L7.01784 50.491L10.8815 51.5263L14.9439 36.3655L11.0802 35.3302ZM7.01784 50.491C6.44607 52.6248 7.7124 54.8182 9.84627 55.39L10.8815 51.5263L10.8815 51.5263L7.01784 50.491ZM9.84627 55.39L42.2589 64.0749L43.2942 60.2112L10.8815 51.5263L9.84627 55.39ZM53.3935 94.0385L44.7084 61.6254L40.8447 62.6607L49.5298 95.0738L53.3935 94.0385ZM53.3935 94.0385L53.3935 94.0385L49.5298 95.0738C50.1015 97.2076 52.2949 98.474 54.4287 97.9022L53.3935 94.0385ZM68.5542 89.9762L53.3935 94.0385L54.4288 97.9022L69.5895 93.8399L68.5542 89.9762ZM68.5542 89.9762L68.5542 89.9762L69.5895 93.8399C71.7233 93.2681 72.9897 91.0748 72.4179 88.9409L68.5542 89.9762ZM62.8123 68.5469L68.5542 89.9762L72.4179 88.9409L66.676 67.5116L62.8123 68.5469ZM64.2265 69.9611L83.5438 75.1372L84.5791 71.2735L65.2617 66.0974L64.2265 69.9611ZM83.5438 75.1372C85.6777 75.7089 87.871 74.4426 88.4428 72.3087L84.5791 71.2735L84.5791 71.2735L83.5438 75.1372ZM88.4428 72.3087L92.5051 57.148L88.6414 56.1127L84.5791 71.2735L88.4428 72.3087ZM92.5051 57.148C93.0769 55.0141 91.8106 52.8208 89.6767 52.249L88.6414 56.1127L88.6414 56.1127L92.5051 57.148ZM89.6767 52.249L72.454 47.6342L71.4187 51.4979L88.6414 56.1127L89.6767 52.249ZM73.3506 50.9803L85.5393 38.7916L82.7109 35.9631L70.5222 48.1518L73.3506 50.9803ZM85.5393 38.7916C87.1014 37.2295 87.1014 34.6968 85.5393 33.1347L82.7109 35.9631L82.7109 35.9631L85.5393 38.7916ZM85.5393 33.1347L74.4409 22.0363L71.6124 24.8647L82.7109 35.9631L85.5393 33.1347ZM74.4409 22.0363C72.8788 20.4742 70.3461 20.4742 68.784 22.0363L71.6124 24.8647L71.6124 24.8647L74.4409 22.0363ZM68.784 22.0363L55.0619 35.7584L57.8903 38.5868L71.6124 24.8647L68.784 22.0363ZM48.807 16.2786L54.5442 37.6902L58.4079 36.655L52.6707 15.2434L48.807 16.2786ZM48.807 16.2786L48.807 16.2786L52.6707 15.2434C52.099 13.1095 49.9056 11.8432 47.7717 12.4149L48.807 16.2786ZM33.6463 20.3409L48.807 16.2786L47.7717 12.4149L32.611 16.4772L33.6463 20.3409Z" fill="#00154C" mask="url(#path-1-inside-1_2606_11463)"/>
<path d="M75.2042 34.3263L81.3484 37.1991L78.0663 43.1347L78.8691 43.718L83.5 38.7623L88.1309 43.718L88.9337 43.1347L85.6516 37.1991L91.7958 34.3263L91.4891 33.3824L84.8298 34.6697L83.9962 27.9386L83.0038 27.9386L82.1702 34.6697L75.5109 33.3824L75.2042 34.3263Z" fill="white" stroke="#D6D4F8"/>
</svg>
