<svg width="241" height="64" viewBox="0 0 241 64" fill="none" xmlns="http://www.w3.org/2000/svg">
<path d="M82.911 47.2378C80.8097 47.2378 79.759 46.1872 79.759 44.0859V17.7115C79.759 15.6102 80.8097 14.5596 82.911 14.5596H99.4587C101.066 14.5596 101.869 15.3321 101.869 16.8772C101.869 18.4841 101.066 19.2875 99.4587 19.2875H85.4603V28.2798H98.439C100.046 28.2798 100.849 29.0678 100.849 30.6438C100.849 32.2197 100.046 33.0077 98.439 33.0077H85.4603V42.5099H99.4587C101.066 42.5099 101.869 43.2979 101.869 44.8739C101.869 46.4499 101.066 47.2378 99.4587 47.2378H82.911Z" fill="white"/>
<path d="M108.436 47.4696C107.756 47.4696 107.185 47.2842 106.721 46.9134C106.289 46.5117 106.057 46.0018 106.026 45.3838C106.026 44.7657 106.289 44.1168 106.814 43.437L113.21 35.5571L107.277 28.2335C106.721 27.5536 106.458 26.9047 106.489 26.2867C106.52 25.6686 106.752 25.1742 107.185 24.8034C107.648 24.4017 108.22 24.2008 108.9 24.2008C109.61 24.2008 110.198 24.3244 110.661 24.5716C111.155 24.8188 111.604 25.2051 112.005 25.7304L116.548 31.5708L121.137 25.7304C121.569 25.2051 122.017 24.8188 122.481 24.5716C122.944 24.3244 123.516 24.2008 124.196 24.2008C124.907 24.2008 125.478 24.4017 125.911 24.8034C126.344 25.2051 126.56 25.715 126.56 26.333C126.591 26.951 126.328 27.6 125.772 28.2798L119.839 35.5571L126.282 43.437C126.838 44.0859 127.101 44.7194 127.07 45.3374C127.039 45.9554 126.792 46.4653 126.328 46.867C125.895 47.2687 125.324 47.4696 124.613 47.4696C123.377 47.4696 122.357 46.9597 121.554 45.94L116.501 39.5897L111.495 45.94C111.094 46.4344 110.661 46.8207 110.198 47.0988C109.734 47.346 109.147 47.4696 108.436 47.4696Z" fill="white"/>
<path d="M135.038 55.952C133.122 55.952 132.164 54.9787 132.164 53.0319V27.121C132.164 25.1742 133.106 24.2008 134.991 24.2008C136.907 24.2008 137.865 25.1742 137.865 27.121V28.0944C138.514 26.8892 139.487 25.9313 140.785 25.2206C142.083 24.4789 143.566 24.1081 145.235 24.1081C147.213 24.1081 148.943 24.5871 150.427 25.545C151.941 26.503 153.115 27.8626 153.949 29.624C154.784 31.3545 155.201 33.4404 155.201 35.8816C155.201 38.2919 154.784 40.3932 153.949 42.1855C153.115 43.9468 151.956 45.3065 150.473 46.2645C148.99 47.2224 147.244 47.7014 145.235 47.7014C143.628 47.7014 142.176 47.3615 140.878 46.6816C139.611 45.9709 138.638 45.0284 137.958 43.8541V53.0319C137.958 54.9787 136.984 55.952 135.038 55.952ZM143.613 43.2979C145.343 43.2979 146.734 42.6799 147.784 41.4438C148.835 40.1769 149.36 38.3228 149.36 35.8816C149.36 33.4095 148.835 31.5708 147.784 30.3657C146.734 29.1296 145.343 28.5116 143.613 28.5116C141.882 28.5116 140.492 29.1296 139.441 30.3657C138.39 31.5708 137.865 33.4095 137.865 35.8816C137.865 38.3228 138.39 40.1769 139.441 41.4438C140.492 42.6799 141.882 43.2979 143.613 43.2979Z" fill="white"/>
<path d="M171.128 47.7014C168.563 47.7014 166.354 47.2224 164.499 46.2645C162.645 45.3065 161.208 43.9468 160.189 42.1855C159.2 40.4241 158.705 38.3382 158.705 35.9279C158.705 33.5794 159.184 31.5245 160.142 29.7631C161.131 28.0017 162.475 26.6266 164.175 25.6377C165.905 24.618 167.868 24.1081 170.062 24.1081C173.275 24.1081 175.809 25.1279 177.663 27.1674C179.548 29.2069 180.491 31.988 180.491 35.5107C180.491 36.6541 179.749 37.2258 178.266 37.2258H164.268C164.7 41.2739 167.018 43.2979 171.221 43.2979C172.024 43.2979 172.92 43.2052 173.909 43.0198C174.929 42.8035 175.887 42.4481 176.783 41.9537C177.586 41.4902 178.266 41.3511 178.822 41.5365C179.379 41.691 179.765 42.0155 179.981 42.5099C180.228 43.0043 180.259 43.5606 180.074 44.1786C179.919 44.7657 179.487 45.2756 178.776 45.7082C177.694 46.3881 176.443 46.8979 175.021 47.2378C173.631 47.5469 172.333 47.7014 171.128 47.7014ZM170.293 28.048C168.594 28.048 167.219 28.5734 166.168 29.624C165.117 30.6747 164.484 32.0961 164.268 33.8884H175.67C175.547 32.0034 175.021 30.5665 174.094 29.5777C173.198 28.5579 171.931 28.048 170.293 28.048Z" fill="white"/>
<path d="M188.046 47.6087C186.068 47.6087 185.079 46.6198 185.079 44.6421V27.121C185.079 25.1742 186.022 24.2008 187.907 24.2008C189.792 24.2008 190.734 25.1742 190.734 27.121V28.5579C191.847 25.9004 194.226 24.4171 197.873 24.1081C199.201 23.9536 199.943 24.7107 200.098 26.3794C200.252 28.0171 199.449 28.9287 197.687 29.1141L196.668 29.2069C192.867 29.5777 190.966 31.5245 190.966 35.0472V44.6421C190.966 46.6198 189.993 47.6087 188.046 47.6087Z" fill="white"/>
<path d="M214.927 47.7014C208.932 47.7014 205.934 44.7348 205.934 38.8018V28.9287H203.524C201.979 28.9287 201.206 28.2026 201.206 26.7502C201.206 25.2978 201.979 24.5716 203.524 24.5716H205.934V20.3536C205.934 18.4068 206.908 17.4334 208.854 17.4334C210.77 17.4334 211.728 18.4068 211.728 20.3536V24.5716H216.642C218.187 24.5716 218.959 25.2978 218.959 26.7502C218.959 28.2026 218.187 28.9287 216.642 28.9287H211.728V38.4773C211.728 39.9606 212.053 41.073 212.702 41.8146C213.351 42.5563 214.401 42.9271 215.854 42.9271C216.379 42.9271 216.843 42.8807 217.244 42.788C217.646 42.6953 218.001 42.6335 218.31 42.6026C218.681 42.5717 218.99 42.6953 219.237 42.9734C219.485 43.2207 219.608 43.746 219.608 44.5494C219.608 45.1674 219.5 45.7237 219.284 46.2181C219.098 46.6816 218.743 47.0061 218.218 47.1915C217.816 47.3151 217.291 47.4233 216.642 47.516C215.993 47.6396 215.421 47.7014 214.927 47.7014Z" fill="white"/>
<path d="M223.814 47.2378C223.011 47.2378 222.408 46.9906 222.007 46.4962C221.605 45.9709 221.435 45.3529 221.497 44.6421C221.558 43.9314 221.883 43.2516 222.47 42.6026L233.363 28.9287H223.536C222.053 28.9287 221.311 28.2026 221.311 26.7502C221.311 25.2978 222.053 24.5716 223.536 24.5716H237.256C238.183 24.5716 238.863 24.8189 239.296 25.3133C239.759 25.8077 239.96 26.4103 239.898 27.121C239.868 27.8008 239.559 28.4652 238.971 29.1141L227.94 42.8807H238.323C239.806 42.8807 240.547 43.6069 240.547 45.0593C240.547 46.5117 239.806 47.2378 238.323 47.2378H223.814Z" fill="white"/>
<circle cx="32.0001" cy="31.9999" r="27.4286" fill="#00154C"/>
<path d="M32 0C14.3319 0 0 14.3301 0 32C0 49.6699 14.3319 64 32 64C49.6681 64 64 49.6699 64 32C64 14.3301 49.6681 0 32 0ZM42.7023 12.5605C45.2377 12.5605 47.2928 14.6495 47.2928 17.2308C47.2928 19.8121 45.2377 21.901 42.7023 21.901C40.1668 21.901 38.1118 19.8121 38.1118 17.2308C38.1118 14.6495 40.1668 12.5605 42.7023 12.5605ZM47.3595 37.5484C47.3595 46.3168 40.3403 51.4661 32.0267 51.4661C23.6063 51.4661 16.6405 46.3168 16.6405 37.5484V16.938C16.6405 14.5297 18.5354 12.5472 20.9641 12.5472C23.4462 12.5472 25.5013 14.5164 25.5013 16.938V37.4952C25.5013 42.4316 28.7973 44.015 32.04 44.015C35.2827 44.015 38.5121 42.4183 38.5121 37.4952V30.0308C38.5121 27.6225 40.5671 25.6399 43.0492 25.6399C45.4779 25.6399 47.3728 27.6091 47.3728 30.0308V37.5484H47.3595Z" fill="#5648FF"/>
</svg>
