<svg width="205" height="32" viewBox="0 0 205 32" fill="none" xmlns="http://www.w3.org/2000/svg">
<path d="M40.1152 25.3007V3.97412H60.703V9.53875H46.9579V12.3943H59.2453V16.6476H46.9579V19.5298H61.149V25.3007H40.1152Z" fill="white"/>
<path d="M69.5624 25.3007H61.0557L70.2746 14.1182L62.0674 3.97412H70.2479L74.5612 9.59865L78.9077 3.97412H87.0883L78.8478 13.9119L87.8338 25.3074H79.4469L74.5679 18.9707L69.5624 25.3007Z" fill="white"/>
<path d="M95.0815 25.3007H88.1523V3.97412H99.5745C107.635 3.97412 110.817 6.68322 110.817 12.2745C110.817 17.5728 107.336 20.2154 99.8407 20.1887H95.0815V25.3007ZM95.0815 14.6241H99.6011C102.723 14.6241 103.735 14.0317 103.735 12.3011C103.735 10.2177 102.517 9.83162 99.5079 9.83162H95.0748V14.6241H95.0815Z" fill="white"/>
<path d="M112.781 25.3007V3.97412H133.369V9.53875H119.623V12.3943H131.911V16.6476H119.623V19.5298H133.815V25.3007H112.781Z" fill="white"/>
<path d="M142.973 25.3007H135.951V3.97412H147.759C150.468 3.97412 152.578 4.24037 154.182 4.71962C157.424 5.70475 158.702 7.72159 158.702 10.9698C158.702 13.8853 157.39 15.5826 154.475 16.5012C157.477 17.2134 158.429 18.8508 158.429 22.392V23.7632C158.429 24.3888 158.635 24.9812 159.201 25.3074H151.673C151.107 25.0412 150.961 24.3822 150.961 23.8763V22.2722C150.961 19.9225 150.095 19.2369 147.24 19.2369H142.953V25.3007H142.973ZM142.973 13.9119H147.766C149.995 13.9119 151.486 13.5258 151.486 11.8618V11.6554C151.486 10.0513 150.355 9.60531 147.859 9.60531H142.98V13.9119H142.973Z" fill="white"/>
<path d="M174.058 25.3007H166.743V10.2177H159.84V3.97412H181.2V10.2243H174.058V25.3007Z" fill="white"/>
<path d="M182.239 20.4217L194.939 9.91815H182.951V3.97412H204.671V9.32575L192.769 19.2036H204.697V25.3007H182.239V20.4217Z" fill="white"/>
<path fill-rule="evenodd" clip-rule="evenodd" d="M6.69224 0H0V15.5178C0 24.621 7.379 32 16.4822 32C17.6584 32 18.8128 31.8685 19.9379 31.6128V19.7114C18.9662 20.7489 17.6073 21.3333 16.19 21.3333C13.1361 21.3333 10.6667 18.8639 10.6667 15.81V3.97443C10.6667 1.77534 8.89132 0 6.69224 0Z" fill="#D4F941"/>
<path fill-rule="evenodd" clip-rule="evenodd" d="M21.334 16.2338V31.2256C27.6975 29.1288 32.0007 23.189 32.0007 16.4895V0H26.4847C23.6427 0 21.334 2.30868 21.334 5.15069V16.2338ZM30.3933 6.48037C30.3933 4.42009 28.7203 2.75434 26.6673 2.75434C24.6143 2.75434 22.9413 4.4274 22.9413 6.48037C22.9413 8.53333 24.6143 10.2064 26.6673 10.2064C28.7203 10.2064 30.3933 8.53333 30.3933 6.48037Z" fill="#00FFED"/>
</svg>
