<svg width="240" height="47" viewBox="0 0 240 47" fill="none" xmlns="http://www.w3.org/2000/svg">
<path d="M75.7083 17.1657C77.1001 18.6226 77.7939 20.7081 77.7939 23.4226C77.7939 26.1368 77.1001 28.2224 75.7083 29.6793C74.3167 31.1361 72.3077 31.8684 69.6816 31.8684H61.9297V14.9805H69.6816C72.3116 14.9766 74.3206 15.7051 75.7083 17.1657ZM71.6522 26.942C72.1621 26.1982 72.4189 25.0289 72.4189 23.4226C72.4189 21.82 72.1621 20.6468 71.6522 19.903C71.1423 19.1593 70.272 18.7913 69.0413 18.7913H67.1474V28.0538H69.0413C70.272 28.0538 71.1423 27.6818 71.6522 26.942Z" fill="#00154C"/>
<path d="M87.4169 31.8654H82.1953V14.9775H87.4169V31.8654Z" fill="#00154C"/>
<path d="M102.898 31.8654H96.7062L90.8711 14.9775H96.3228L99.0334 24.677L99.9036 27.978L100.724 24.7269L103.461 14.9775H108.733L102.898 31.8654Z" fill="#00154C"/>
<path d="M126.136 27.951V31.8654H112.188V14.9775H125.802V18.8918H117.41V21.6291H124.115V25.2635H117.41V27.951H126.136Z" fill="#00154C"/>
<path d="M137.419 26.0073H135.295V31.8654H130.177V14.9775H138.826C140.977 14.9775 142.614 15.4453 143.741 16.3844C144.868 17.3237 145.431 18.6962 145.431 20.5059C145.431 22.9633 144.381 24.6081 142.284 25.4438L146.405 31.8654H140.701L137.419 26.0073ZM135.295 22.4496H137.829C138.68 22.4496 139.286 22.3078 139.646 22.0278C140.003 21.7481 140.183 21.2802 140.183 20.6323C140.183 19.9845 139.999 19.5167 139.631 19.2253C139.263 18.934 138.661 18.7921 137.825 18.7921H135.291V22.4496H135.295Z" fill="#00154C"/>
<path d="M161.125 15.3766C162.293 15.8097 163.414 16.5496 164.491 17.5886L161.934 20.8895C161.251 20.1036 160.523 19.5362 159.744 19.1873C158.966 18.8385 158.077 18.6621 157.069 18.6621C156.337 18.6621 155.766 18.7809 155.356 19.0186C154.944 19.2564 154.742 19.5745 154.742 19.9656C154.742 20.2723 154.956 20.5099 155.381 20.6824C155.807 20.8512 156.517 21.0314 157.506 21.2193C159.142 21.5106 160.453 21.8902 161.435 22.3579C162.416 22.8256 163.134 23.4199 163.586 24.1367C164.038 24.8537 164.264 25.7393 164.264 26.7975C164.264 27.9246 163.939 28.8869 163.291 29.6881C162.644 30.4894 161.765 31.0952 160.657 31.5053C159.549 31.9156 158.296 32.1187 156.897 32.1187C154.953 32.1187 153.381 31.9079 152.188 31.49C150.993 31.0721 149.884 30.4128 148.86 29.508L151.29 25.9271C151.974 26.7285 152.736 27.3035 153.58 27.6561C154.423 28.0051 155.417 28.1815 156.563 28.1815C158.115 28.1815 158.89 27.8058 158.89 27.0544C158.89 26.7322 158.664 26.4753 158.21 26.2875C157.758 26.0996 157.03 25.9118 156.021 25.7239C154.657 25.467 153.511 25.1605 152.579 24.8039C151.648 24.4474 150.877 23.9144 150.264 23.2052C149.65 22.4958 149.343 21.5528 149.343 20.3759C149.343 19.2678 149.643 18.2864 150.24 17.4315C150.838 16.5803 151.709 15.9133 152.851 15.434C153.994 14.9587 155.359 14.717 156.946 14.717C158.56 14.7209 159.955 14.9395 161.125 15.3766Z" fill="#00154C"/>
<path d="M182.324 27.951V31.8654H168.376V14.9775H181.99V18.8918H173.598V21.6291H180.302V25.2635H173.598V27.951H182.324Z" fill="#00154C"/>
<path d="M198.677 16.3991C199.77 17.346 200.314 18.6802 200.314 20.4053C200.314 22.0769 199.77 23.3843 198.677 24.3197C197.585 25.2589 196.059 25.7266 194.096 25.7266H190.538V31.8684H187.007V14.9805H194.096C196.059 14.9766 197.585 15.4521 198.677 16.3991ZM195.963 22.3338C196.472 21.9005 196.729 21.245 196.729 20.3746C196.729 19.5044 196.472 18.8564 195.963 18.4309C195.453 18.0054 194.648 17.7907 193.559 17.7907H190.538V22.9855H193.559C194.651 22.9855 195.453 22.7708 195.963 22.3338Z" fill="#00154C"/>
<path d="M212.107 25.3931H208.934V31.8684H205.452V14.9805H212.897C214.826 14.9805 216.33 15.4367 217.414 16.3491C218.499 17.2616 219.039 18.5459 219.039 20.2021C219.039 21.4136 218.74 22.4295 218.143 23.2461C217.545 24.0665 216.693 24.6532 215.585 25.0135L220.036 31.8723H216.068L212.107 25.3931ZM208.937 22.7056H212.441C213.464 22.7056 214.22 22.5063 214.708 22.1036C215.194 21.7049 215.435 21.0838 215.435 20.248C215.435 19.4123 215.194 18.7951 214.708 18.3926C214.22 17.9899 213.464 17.7907 212.441 17.7907H208.937V22.7056Z" fill="#00154C"/>
<path d="M236.201 15.7712C237.42 16.4728 238.36 17.4733 239.015 18.7768C239.67 20.0803 239.999 21.6292 239.999 23.4195C239.999 25.2099 239.67 26.7588 239.015 28.0623C238.36 29.3658 237.42 30.3703 236.201 31.068C234.981 31.7696 233.545 32.1185 231.888 32.1185C230.232 32.1185 228.79 31.7696 227.563 31.068C226.336 30.3703 225.393 29.3658 224.734 28.0623C224.078 26.7588 223.749 25.2099 223.749 23.4195C223.749 21.6292 224.078 20.0803 224.734 18.7768C225.389 17.4733 226.333 16.4689 227.563 15.7712C228.79 15.0734 230.232 14.7207 231.888 14.7207C233.545 14.7207 234.981 15.0734 236.201 15.7712ZM228.576 19.1104C227.798 20.1072 227.41 21.5448 227.41 23.4234C227.41 25.3019 227.798 26.7359 228.576 27.7364C229.349 28.7332 230.458 29.2316 231.888 29.2316C233.302 29.2316 234.399 28.7332 235.177 27.7364C235.952 26.7396 236.343 25.3019 236.343 23.4234C236.343 21.5487 235.955 20.111 235.177 19.1104C234.399 18.1137 233.307 17.6151 231.888 17.6151C230.458 17.6151 229.354 18.1137 228.576 19.1104Z" fill="#00154C"/>
<path d="M14.6545 12.9315H19.3355C21.4978 12.9315 23.9362 13.3877 24.7374 13.7135C26.2785 14.3461 27.5707 15.1436 28.6786 16.1518C29.7213 17.1026 30.5303 18.1953 31.1475 19.4949C31.6996 20.6566 31.968 21.845 31.968 23.1256C31.968 24.3945 31.6996 25.5869 31.1475 26.7714C30.5495 28.0558 29.7482 29.1485 28.7015 30.1107C27.6051 31.119 26.3322 31.9126 24.8103 32.5375C24.5151 32.6563 23.9016 32.8212 23.1081 32.963V46.0172H23.1119C25.7495 45.7373 28.46 45.1738 30.5303 44.3226C33.6203 43.0575 36.3232 41.3592 38.6387 39.2352C40.9505 37.1113 44.0674 31.8475 44.0674 31.8475C45.3709 29.0488 46.0266 26.1351 46.0266 23.1102C46.0266 20.047 45.3633 17.1141 44.033 14.3155C42.7026 11.5168 40.8816 9.06315 38.5698 6.95836C36.258 4.85361 33.5552 3.16672 30.4613 1.90157C27.3712 0.636413 22.8703 0 19.3433 0H0.607422V46.2204H14.6622V12.9238" fill="#1EAFBD"/>
</svg>
