<svg width="177" height="46" viewBox="0 0 177 46" fill="none" xmlns="http://www.w3.org/2000/svg">
<path d="M47.2277 44.4092H39.0672L35.7303 36.992L32.3913 29.5748L23.6127 10.1633L14.8341 29.5748H26.0851L29.4241 36.992H11.4972L8.15825 44.4092H-0.000244141L19.5325 1.13623L27.693 1.13623L47.2277 44.4092Z" fill="#00154C"/>
<path d="M67.5652 0.208496C70.6557 0.208496 73.5704 0.796296 76.3135 1.96988C79.0525 3.14345 81.4441 4.75132 83.4842 6.79145C85.5244 8.83158 87.1322 11.2212 88.3058 13.9622C89.4814 16.7032 90.0692 19.618 90.0692 22.7085C90.0692 25.799 89.4814 28.7158 88.3058 31.4548C87.1322 34.1958 85.5244 36.5854 83.4842 38.6255C81.4441 40.6657 79.0545 42.2735 76.3135 43.4471C73.5725 44.6207 70.6577 45.2085 67.5652 45.2085C64.4747 45.2085 61.5579 44.6207 58.8189 43.4471C56.0778 42.2735 53.6883 40.6657 51.6481 38.6255C49.608 36.5854 48.0001 34.1958 46.8266 31.4548C45.651 28.7158 45.0652 25.799 45.0652 22.7085C45.0652 19.618 45.651 16.7032 46.8266 13.9622C48.0001 11.2212 49.608 8.83158 51.6481 6.79145C53.6883 4.75132 56.0778 3.14345 58.8189 1.96988C61.5579 0.796296 64.4747 0.208496 67.5652 0.208496ZM67.5652 7.62568C65.5453 7.62568 63.6283 8.00745 61.8165 8.76896C60.0026 9.53249 58.3745 10.6334 56.9323 12.0756C55.49 13.5178 54.3872 15.1459 53.6256 16.9598C52.8621 18.7737 52.4824 20.6906 52.4824 22.7085C52.4824 24.7284 52.8621 26.6554 53.6256 28.4875C54.3872 30.3216 55.49 31.9598 56.9323 33.402C58.3745 34.8442 60.0026 35.937 61.8165 36.6783C63.6283 37.4196 65.5453 37.7913 67.5652 37.7913C69.5831 37.7913 71.5121 37.4217 73.3442 36.6783C75.1763 35.937 76.8165 34.8463 78.2587 33.402C79.7009 31.9598 80.7937 30.3216 81.535 28.4875C82.2763 26.6554 82.648 24.7264 82.648 22.7085C82.648 20.6906 82.2763 18.7737 81.535 16.9598C80.7937 15.1479 79.7009 13.5198 78.2587 12.0756C76.8165 10.6334 75.1783 9.53249 73.3442 8.76896C71.5101 8.00745 69.5831 7.62568 67.5652 7.62568Z" fill="#00154C"/>
<path d="M115.972 2.37243C117.867 3.19656 119.515 4.30954 120.917 5.71137C122.316 7.1132 123.429 8.75137 124.256 10.6259C125.08 12.5024 125.492 14.5102 125.492 16.6533C125.492 18.7965 125.08 20.8164 124.256 22.7111C123.429 24.6078 122.316 26.2561 120.917 27.6579C119.515 29.0597 117.867 30.1727 115.972 30.9969C114.075 31.821 112.055 32.2331 109.914 32.2331H103.733L106.763 24.8159H109.916C112.142 24.8159 114.059 24.0119 115.665 22.4041C117.273 20.7962 118.077 18.8813 118.077 16.6554C118.077 14.389 117.273 12.4923 115.665 10.9672C114.057 9.35936 112.142 8.55543 109.916 8.55543L101.2 8.55543V44.4092H93.783V1.13623L109.918 1.13623C112.055 1.13623 114.075 1.5483 115.972 2.37243Z" fill="#00154C"/>
<path d="M166.965 26.7476H159.126V34.5869H166.965V26.7476Z" fill="#A7335D"/>
<path d="M150.63 26.7471H142.791V34.5864H150.63V26.7471Z" fill="#37B2E1"/>
<path d="M150.63 18.2527V10.4133H142.791V18.2507V18.2527H150.63Z" fill="#4DBC8A"/>
<path d="M166.965 10.4133H159.126V18.2527H166.965V10.4133Z" fill="#F79133"/>
<path d="M142.135 18.9067L132.879 22.4982L142.135 26.0896V18.9067Z" fill="#6CCBD5"/>
<path d="M142.135 26.0897L132.879 22.4983C132.879 26.217 133.805 29.7195 135.433 32.7919L142.135 26.0897Z" fill="#3BC1CF"/>
<path d="M135.433 12.2097C133.802 15.282 132.879 18.7846 132.879 22.5033L142.135 18.9118L135.433 12.2097Z" fill="#9AD8E2"/>
<path d="M158.469 9.75752L165.171 3.05539C162.099 1.42531 158.597 0.502197 154.878 0.502197L158.469 9.75752Z" fill="#F8B31D"/>
<path d="M154.876 0.502197C151.157 0.502197 147.654 1.42733 144.582 3.05539L151.284 9.75752L154.876 0.502197Z" fill="#FFDA8D"/>
<path d="M151.286 9.75752H158.469L154.878 0.502197L151.286 9.75752Z" fill="#FFCA5A"/>
<path d="M167.622 26.0924L174.324 32.7945C175.954 29.7222 176.877 26.2197 176.877 22.501L167.622 26.0924Z" fill="#CD2032"/>
<path d="M174.32 12.2097L167.618 18.9118L176.873 22.5033C176.873 18.7826 175.95 15.28 174.32 12.2097Z" fill="#EF6F7B"/>
<path d="M167.622 18.9067V26.0896L176.875 22.4982L167.622 18.9067Z" fill="#E14A56"/>
<path d="M166.965 10.4143L166.012 3.52637L159.126 10.4143H166.965Z" fill="#FAA65A"/>
<path d="M173.851 11.3679C171.95 8.134 169.246 5.43134 166.012 3.52856L166.963 10.4165L173.851 11.3679Z" fill="#F79133"/>
<path d="M166.964 18.2527L173.85 11.3647L166.964 10.4133V18.2527Z" fill="#F47920"/>
<path d="M150.63 10.4143L143.742 3.52637L142.791 10.4143H150.63Z" fill="#75C7A2"/>
<path d="M142.792 10.4136L135.904 11.365L142.792 18.2509V10.4136Z" fill="#75C7A2"/>
<path d="M143.743 3.52856C140.509 5.42932 137.806 8.134 135.903 11.3679L142.791 10.4165L143.743 3.52856Z" fill="#8DCFB3"/>
<path d="M142.791 34.5872L143.742 41.4751L150.63 34.5872H142.791Z" fill="#1098CF"/>
<path d="M135.904 33.634C137.804 36.8679 140.509 39.5706 143.743 41.4734L142.792 34.5854L135.904 33.634Z" fill="#37B2E1"/>
<path d="M142.791 26.7488L135.903 33.6367L142.791 34.5881V26.7488Z" fill="#69CBF1"/>
<path d="M159.126 34.5869L166.012 41.4749L166.965 34.5869H159.126Z" fill="#8C183F"/>
<path d="M173.85 33.6367L166.964 26.7488V34.5881L173.85 33.6367Z" fill="#8C183F"/>
<path d="M173.851 33.634L166.963 34.5854L166.012 41.4734C169.246 39.5706 171.95 36.8679 173.851 33.634Z" fill="#78102E"/>
<path d="M151.284 35.2434L144.582 41.9455C147.654 43.5756 151.157 44.4987 154.876 44.4987L151.284 35.2434Z" fill="#2270A1"/>
<path d="M151.286 35.2434L154.878 44.4987L158.469 35.2434L154.878 44.4987L158.469 35.2434H151.286Z" fill="#055380"/>
<path d="M158.469 35.2434L154.878 44.4987C158.597 44.4987 162.099 43.5736 165.171 41.9455L158.469 35.2434Z" fill="#0A4467"/>
</svg>
