<svg width="253" height="23" viewBox="0 0 253 23" fill="none" xmlns="http://www.w3.org/2000/svg">
<g clip-path="url(#clip0_2435_1938)">
<path d="M58.2919 21.5533C56.9273 21.0701 55.7735 20.3673 54.8277 19.442C53.8819 18.5166 53.1586 17.3863 52.6608 16.051C52.163 14.7157 51.9141 13.2047 51.9141 11.521C51.9141 9.83719 52.1776 8.32619 52.7076 6.99089C53.2377 5.65559 53.9902 4.51942 54.9653 3.58529C55.9434 2.65117 57.1176 1.93667 58.491 1.44178C59.8644 0.949832 61.4076 0.700928 63.1177 0.700928C64.4003 0.700928 65.6477 0.838557 66.8571 1.11674C68.0694 1.39493 69.1617 1.84003 70.1397 2.4579C71.1178 3.07577 71.9377 3.86934 72.5966 4.84738C73.2584 5.8225 73.68 6.99968 73.8645 8.37597H69.7444C69.6009 7.7581 69.311 7.21051 68.8747 6.72735C68.4384 6.24418 67.9113 5.843 67.3022 5.52675C66.6902 5.20756 66.0196 4.96159 65.2876 4.78882C64.5555 4.61312 63.8 4.52527 63.0298 4.52527C61.8293 4.52527 60.7868 4.69511 59.9024 5.0348C59.0152 5.37448 58.2889 5.85179 57.7179 6.46673C57.1469 7.08167 56.7252 7.81667 56.45 8.6688C56.1747 9.52093 56.0371 10.4609 56.0371 11.4887C56.0371 12.5166 56.1747 13.4243 56.45 14.2765C56.7252 15.1286 57.1411 15.8636 57.7004 16.4815C58.2597 17.0964 58.983 17.5796 59.8673 17.931C60.7516 18.2794 61.8058 18.4551 63.0269 18.4551C63.718 18.4551 64.4266 18.379 65.1499 18.2238C65.8732 18.0686 66.5526 17.8343 67.1939 17.5152C67.8352 17.196 68.3886 16.7919 68.8571 16.297C69.3257 15.805 69.6507 15.2194 69.8352 14.54H73.8967C73.6713 15.9163 73.2203 17.0935 72.538 18.0686C71.8557 19.0437 71.0153 19.8461 70.0197 20.4727C69.0211 21.0994 67.9113 21.5562 66.6931 21.8432C65.472 22.1301 64.2217 22.2736 62.9391 22.2736C61.2085 22.2736 59.6623 22.0335 58.2977 21.5503" fill="#00154C"/>
<path d="M120.713 22.2763H116.35L114.73 17.4681H103.375L101.664 22.2763H97.3306L105.052 0.703613H109.143L104.473 14.0156H113.632L109.143 0.703613H113.205L120.713 22.2763Z" fill="#00154C"/>
<path d="M121.69 0.703613H125.661V22.2763H121.69V0.703613ZM142.267 22.2763H134.238L125.658 0.703613H129.687L138.296 22.2763V0.703613H142.264V22.2763H142.267Z" fill="#00154C"/>
<path d="M185.333 0.703613H196.779C197.532 0.703613 198.305 0.797318 199.099 0.981801C199.892 1.16628 200.61 1.45911 201.251 1.86029C201.892 2.26146 202.405 2.77977 202.794 3.41814C203.181 4.0565 203.345 4.82664 203.283 5.72856C203.222 6.46941 202.973 7.08435 202.536 7.57923C202.1 8.07119 201.564 8.46943 200.935 8.76519C200.305 9.06388 199.632 9.26886 198.92 9.38013C198.208 9.49434 197.555 9.54997 196.967 9.54997C197.863 9.61147 198.733 9.78716 199.576 10.0741C200.422 10.3611 201.163 10.7681 201.804 11.2923C202.446 11.8165 202.958 12.4578 203.348 13.2191C203.734 13.9805 203.927 14.8619 203.927 15.8692C203.927 17.061 203.755 18.0684 203.409 18.8912C203.064 19.7141 202.575 20.3759 201.942 20.8795C201.312 21.3832 200.56 21.7434 199.684 21.9571C198.809 22.1738 197.842 22.2822 196.785 22.2822H185.339V0.703613H185.333ZM196.293 9.54997C197.189 9.54997 197.942 9.31864 198.551 8.85597C199.16 8.3933 199.468 7.73151 199.468 6.86766C199.468 6.00382 199.163 5.30981 198.551 4.91156C197.942 4.51039 197.186 4.31126 196.293 4.31126H189.365V9.54997H196.293ZM189.365 13.0024V18.6745H196.507C197.506 18.6745 198.302 18.4578 198.902 18.0274C199.503 17.5969 199.804 16.8356 199.804 15.7462C199.804 14.7799 199.488 14.083 198.859 13.6496C198.229 13.2191 197.444 13.0024 196.507 13.0024H189.365Z" fill="#00154C"/>
<path d="M225.108 19.5179C223.134 21.3568 220.294 22.2763 216.589 22.2763C212.885 22.2763 210.001 21.3568 208.056 19.5179C206.112 17.6789 205.14 15.0024 205.14 11.4885C205.14 7.97455 206.138 5.24832 208.132 3.42985C210.127 1.61138 212.955 0.703613 216.619 0.703613C220.282 0.703613 223.105 1.59088 225.09 3.36836C227.075 5.14583 228.068 7.85156 228.068 11.4885C228.068 15.1254 227.081 17.6789 225.108 19.5179ZM222.1 6.35814C220.847 5.13704 219.031 4.52503 216.651 4.52503C214.27 4.52503 212.411 5.13997 211.14 6.37278C209.869 7.60559 209.23 9.30985 209.23 11.4885C209.23 13.6671 209.866 15.4505 211.14 16.6511C212.411 17.8517 214.247 18.4549 216.651 18.4549C219.055 18.4549 220.976 17.8224 222.176 16.5603C223.377 15.2982 223.977 13.5852 223.977 11.4299C223.977 9.27471 223.351 7.58216 222.1 6.36107" fill="#00154C"/>
<path d="M226.144 0.703613H230.937L236.888 8.34645L242.721 0.703613H247.573L239.453 11.4885L247.573 22.2763H242.721L236.858 14.6013L230.876 22.2763H225.839L234.355 11.4885L226.144 0.703613Z" fill="#00154C"/>
<path d="M252.869 2.92679C252.781 3.14348 252.655 3.32797 252.494 3.48024C252.333 3.63251 252.137 3.74964 251.905 3.8287C251.674 3.9107 251.416 3.94876 251.132 3.94876C250.848 3.94876 250.585 3.90777 250.353 3.82577C250.122 3.74378 249.929 3.62665 249.768 3.47731C249.607 3.32504 249.484 3.14348 249.396 2.92386C249.311 2.70717 249.267 2.46119 249.267 2.19179C249.267 1.92239 249.311 1.67641 249.399 1.45972C249.486 1.24302 249.612 1.05854 249.773 0.909199C249.937 0.759856 250.134 0.642724 250.362 0.560732C250.593 0.47874 250.851 0.437744 251.135 0.437744C251.419 0.437744 251.671 0.475812 251.899 0.551947C252.128 0.628083 252.324 0.742286 252.485 0.891629C252.649 1.04097 252.772 1.22545 252.863 1.44508C252.954 1.6647 252.997 1.9136 252.997 2.19472C252.997 2.47583 252.954 2.7101 252.866 2.92679M252.599 1.57685C252.529 1.39529 252.429 1.24302 252.295 1.11711C252.163 0.991191 251.999 0.894557 251.803 0.827207C251.607 0.759856 251.384 0.724716 251.135 0.724716C250.886 0.724716 250.664 0.759856 250.467 0.827207C250.271 0.894557 250.104 0.994119 249.97 1.12004C249.835 1.24595 249.732 1.40115 249.662 1.58271C249.592 1.76426 249.557 1.96924 249.557 2.19472C249.557 2.4202 249.592 2.63689 249.662 2.82137C249.732 3.00293 249.838 3.15812 249.973 3.28404C250.107 3.40996 250.274 3.50366 250.47 3.57101C250.667 3.63544 250.889 3.66765 251.138 3.66765C251.387 3.66765 251.624 3.63251 251.82 3.56223C252.017 3.49195 252.18 3.39239 252.309 3.26354C252.441 3.1347 252.538 2.9795 252.605 2.79795C252.672 2.61639 252.705 2.41141 252.705 2.18886C252.705 1.96631 252.67 1.76133 252.599 1.58271M250.277 3.01757V1.3748H251.246C251.331 1.3748 251.422 1.38358 251.516 1.39822C251.609 1.41579 251.691 1.44215 251.768 1.47729C251.844 1.51243 251.902 1.55635 251.952 1.60906C251.999 1.66177 252.025 1.72912 252.025 1.80526C252.025 1.87261 252.008 1.92824 251.973 1.9751C251.937 2.02195 251.894 2.06002 251.838 2.08637C251.782 2.11565 251.724 2.13615 251.659 2.14787C251.595 2.15958 251.533 2.16543 251.478 2.16543H252.025V3.00878H251.738V2.43777H250.561V3.00878H250.283L250.277 3.01757ZM250.555 2.17422H251.241C251.305 2.17422 251.366 2.16836 251.431 2.15958C251.492 2.15079 251.551 2.13322 251.601 2.10687C251.65 2.08051 251.691 2.0483 251.721 2.00731C251.75 1.96631 251.765 1.9136 251.765 1.84918C251.765 1.81111 251.75 1.78183 251.718 1.7584C251.686 1.73498 251.645 1.71448 251.595 1.69691C251.545 1.67934 251.489 1.66763 251.428 1.66177C251.366 1.65591 251.308 1.65298 251.246 1.65298H250.555V2.17422Z" fill="#00154C"/>
<path d="M92.3272 0.703613V9.48555H80.5467L79.1411 13.304L79.1382 0.703613H75.1089V22.2763H79.1382V13.307H92.3272V22.2763H96.3566V0.703613H92.3272Z" fill="#00154C"/>
<path d="M184.114 4.49282V0.703613H166.53V22.2763H184.114V18.4871H170.559V13.1547H178.855L180.135 9.57926H170.559V4.49282H184.114Z" fill="#00154C"/>
<path d="M159.282 17.2838C158.621 17.6938 157.909 18.013 157.145 18.2385C156.383 18.4639 155.675 18.5781 155.022 18.5781C152.703 18.5781 150.887 18.0218 149.572 16.9149C148.26 15.805 147.604 14.0686 147.604 11.7054C147.604 9.34231 148.246 7.41257 149.528 6.22076C150.811 5.02894 152.703 4.4345 155.206 4.4345C155.897 4.4345 156.565 4.49014 157.206 4.60434C157.848 4.71854 158.436 4.91767 158.978 5.20464C159.517 5.49161 159.979 5.87815 160.366 6.36131C160.752 6.84448 161.037 7.44478 161.221 8.16514H165.312C165.168 6.82984 164.799 5.69074 164.199 4.7449C163.599 3.79906 162.84 3.02892 161.924 2.43448C161.007 1.84004 159.979 1.40372 158.84 1.12553C157.701 0.847346 156.521 0.709717 155.3 0.709717C153.59 0.709717 152.017 0.920554 150.583 1.34223C149.148 1.7639 147.9 2.41691 146.843 3.29832C145.786 4.18267 144.96 5.30713 144.372 6.67171C143.78 8.03922 143.487 9.66735 143.487 11.5561C143.487 13.2838 143.736 14.8124 144.234 16.1477C144.732 17.483 145.461 18.6045 146.416 19.5064C147.373 20.4112 148.539 21.0994 149.912 21.5708C151.285 22.0423 152.837 22.2795 154.568 22.2795C155.95 22.2795 157.098 21.9925 158.003 21.4156C158.908 20.8388 159.625 20.1213 160.155 19.2575C160.685 18.3937 161.054 17.4654 161.268 16.4668C161.482 15.4712 161.59 14.5517 161.59 13.7084C161.59 14.4668 161.37 15.152 160.934 15.7582C160.498 16.3644 159.947 16.8739 159.285 17.2838" fill="#00154C"/>
<path d="M154.778 13.7093H161.587V21.97H165.311V10.1953H156.037L154.778 13.7093Z" fill="#00154C"/>
<path d="M16.766 20.5591C15.0852 21.6426 13.0881 22.2722 10.9475 22.2722C5.00599 22.2722 0.171387 17.4434 0.171387 11.5019C0.171387 5.56044 5.00599 0.734619 10.9446 0.734619C13.0851 0.734619 15.0852 1.36127 16.7631 2.44767C13.4482 5.43159 10.3501 9.417 10.3501 11.5049C10.3501 13.5927 13.4512 17.5781 16.7631 20.5621" fill="#FF8A22"/>
<path d="M29.1632 18.8242C26.885 20.9823 24.4604 22.7276 23.2275 22.7276C22.3637 22.7276 20.9259 21.8784 19.3564 20.6309C19.1484 20.4611 18.9318 20.2854 18.718 20.1038C18.5101 19.9281 18.2934 19.7466 18.0855 19.5533C15.0518 16.8446 12.0034 13.1403 12.0034 11.5034C12.0034 9.86652 15.0576 6.15637 18.0913 3.45356C18.3022 3.26029 18.5101 3.07874 18.718 2.90304C18.9318 2.72149 19.1484 2.54579 19.3564 2.37595C20.9259 1.12557 22.3637 0.279297 23.2275 0.279297C24.4604 0.279297 26.8762 2.02456 29.1573 4.18271L21.8337 11.5064L29.1632 18.8271V18.8242Z" fill="#1AD992"/>
<path d="M35.5107 0.166323L24.1741 11.5029L35.5107 22.8395L46.8473 11.5029L35.5107 0.166323Z" fill="#6828EB"/>
</g>
<defs>
<clipPath id="clip0_2435_1938">
<rect width="252.828" height="22.6708" fill="white" transform="translate(0.171387 0.166016)"/>
</clipPath>
</defs>
</svg>
