<svg width="229" height="48" viewBox="0 0 229 48" fill="none" xmlns="http://www.w3.org/2000/svg">
<path fill-rule="evenodd" clip-rule="evenodd" d="M0.5 47.9999H17.6956C18.0216 35.8476 24.4616 27.89 34.5591 25.338C14.3041 23.7733 3.34943 39.3615 0.5 47.9999Z" fill="#4EFDEA"/>
<path fill-rule="evenodd" clip-rule="evenodd" d="M34.6968 41.5877C30.1821 35.2019 34.5717 27.921 35.9329 26.6978C25.7254 30.2915 24.3432 44.3499 25.1763 47.9386L44.0751 48.0001C39.4374 46.2796 36.552 44.1038 34.8457 41.7989C34.6968 41.5877 34.6968 41.5877 34.6968 41.5877Z" fill="#006BF1"/>
<path fill-rule="evenodd" clip-rule="evenodd" d="M16.6858 0V13.8369C26.5033 17.3148 53.9534 27.2052 36.3447 41.5875L36.4938 41.7988C41.9996 39.6025 45.5701 36.6393 47.2144 33.5776C53.8393 21.2388 33.5353 8.08578 16.6858 0Z" fill="#7782F1"/>
<path d="M63.5002 35.7419V13.1613H73.8373C76.0753 13.1613 77.9366 13.9032 79.4212 15.3871C80.9059 16.8495 81.6482 18.6022 81.6482 20.6452C81.6482 22.2151 81.1829 23.6129 80.2522 24.8387C79.3215 26.0645 78.1139 26.8925 76.6293 27.3226L81.9473 35.7419H77.4934L72.408 27.8065H67.4223V35.7419H63.5002ZM73.6711 24.4516C74.8455 24.4516 75.8315 24.086 76.6293 23.3548C77.427 22.6022 77.8258 21.6559 77.8258 20.5161C77.8258 19.4194 77.4602 18.4946 76.729 17.7419C75.9977 16.9892 75.0338 16.6129 73.8373 16.6129H67.4223V24.4516H73.6711Z" fill="#00154C"/>
<path d="M86.3332 20.9355C88.1059 19.2151 90.2331 18.3548 92.7149 18.3548C94.9308 18.3548 96.8586 19.0538 98.4983 20.4516C100.16 21.828 101.179 23.5591 101.556 25.6452C101.689 26.1613 101.756 26.6774 101.756 27.1936C101.756 27.6452 101.7 28.0968 101.589 28.5484H87.43C87.6516 29.8172 88.2499 30.828 89.2249 31.5806C90.222 32.3333 91.3854 32.7097 92.7149 32.7097C94.7535 32.7097 96.3821 32 97.6009 30.5806L100.991 31.4516C100.282 32.828 99.1409 33.9355 97.5676 34.7742C96.0165 35.5914 94.3989 36 92.7149 36C90.1666 36 88.0173 35.1398 86.2667 33.4194C84.5383 31.6989 83.6742 29.6237 83.6742 27.1936C83.6742 24.7419 84.5605 22.6559 86.3332 20.9355ZM87.43 25.7097H97.8668C97.6452 24.5699 97.058 23.6129 96.1052 22.8387C95.1745 22.043 94.0333 21.6452 92.6817 21.6452C91.33 21.6452 90.1777 22.043 89.2249 22.8387C88.2721 23.6129 87.6738 24.5699 87.43 25.7097Z" fill="#00154C"/>
<path d="M104.819 13.1613H108.641V20.9677C110.082 19.2473 111.976 18.3763 114.325 18.3548C114.347 18.3548 114.38 18.3548 114.425 18.3548C116.84 18.3548 118.89 19.2151 120.574 20.9355C122.258 22.6344 123.1 24.7204 123.1 27.1936C123.1 29.6452 122.269 31.7312 120.607 33.4516C118.945 35.1505 116.851 36 114.325 36C111.976 36 110.082 35.1613 108.641 33.4839V35.7419H104.819V13.1613ZM110.071 31.0323C111.156 32.1075 112.464 32.6452 113.993 32.6452C115.522 32.6452 116.818 32.1075 117.882 31.0323C118.967 29.957 119.51 28.6774 119.51 27.1936C119.51 25.7097 118.967 24.4301 117.882 23.3548C116.818 22.2581 115.522 21.7097 113.993 21.7097C112.464 21.7097 111.145 22.2581 110.037 23.3548C108.952 24.4301 108.409 25.7097 108.409 27.1936C108.409 28.6774 108.963 29.957 110.071 31.0323Z" fill="#00154C"/>
<path d="M130.002 18.6452V35.7419H126.18V18.6452H130.002ZM126.38 12.6774C126.867 12.2258 127.454 12 128.141 12C128.828 12 129.404 12.2258 129.87 12.6774C130.357 13.1075 130.601 13.6559 130.601 14.3226C130.601 14.9892 130.368 15.5376 129.903 15.9677C129.415 16.4194 128.828 16.6452 128.141 16.6452C127.454 16.6452 126.867 16.4301 126.38 16C125.892 15.5484 125.648 14.9892 125.648 14.3226C125.648 13.6774 125.892 13.129 126.38 12.6774Z" fill="#00154C"/>
<path d="M133.837 35.7419V13.1613H137.659V35.7419H133.837Z" fill="#00154C"/>
<path d="M153.007 18.6452V35.7419H149.185V18.6452H153.007ZM149.384 12.6774C149.872 12.2258 150.459 12 151.146 12C151.833 12 152.409 12.2258 152.874 12.6774C153.362 13.1075 153.606 13.6559 153.606 14.3226C153.606 14.9892 153.373 15.5376 152.908 15.9677C152.42 16.4194 151.833 16.6452 151.146 16.6452C150.459 16.6452 149.872 16.4301 149.384 16C148.897 15.5484 148.653 14.9892 148.653 14.3226C148.653 13.6774 148.897 13.129 149.384 12.6774Z" fill="#00154C"/>
<path d="M158.836 20.9355C160.608 19.2151 162.747 18.3548 165.251 18.3548C167.755 18.3548 169.882 19.2258 171.632 20.9677C173.405 22.6882 174.291 24.7527 174.291 27.1613C174.291 29.5914 173.405 31.6774 171.632 33.4194C169.86 35.1398 167.732 36 165.251 36C162.747 36 160.608 35.1398 158.836 33.4194C157.063 31.6774 156.177 29.5914 156.177 27.1613C156.177 24.7312 157.063 22.6559 158.836 20.9355ZM159.766 27.1613C159.766 28.6452 160.298 29.9247 161.362 31C162.425 32.0753 163.722 32.6129 165.251 32.6129C166.757 32.6129 168.043 32.0753 169.106 31C170.17 29.9247 170.702 28.6452 170.702 27.1613C170.702 25.6774 170.17 24.4086 169.106 23.3548C168.065 22.2796 166.78 21.7419 165.251 21.7419C163.722 21.7419 162.425 22.2796 161.362 23.3548C160.298 24.4086 159.766 25.6774 159.766 27.1613Z" fill="#00154C"/>
<path d="M176.9 18.6452H180.722V20.9032C182.074 19.2043 183.902 18.3548 186.206 18.3548C188.223 18.3548 189.951 18.9892 191.391 20.2581C192.854 21.5054 193.585 23.172 193.585 25.2581V35.7419H189.763V26.2581C189.763 24.9032 189.342 23.828 188.5 23.0323C187.68 22.2151 186.66 21.8065 185.442 21.8065C184.046 21.8065 182.905 22.3011 182.018 23.2903C181.154 24.2581 180.722 25.4731 180.722 26.9355V35.7419H176.9V18.6452Z" fill="#00154C"/>
<path d="M196.196 33.5484C196.196 32.8602 196.439 32.2796 196.927 31.8065C197.436 31.3118 198.046 31.0645 198.755 31.0645C199.464 31.0645 200.062 31.3118 200.55 31.8065C201.037 32.2796 201.281 32.8602 201.281 33.5484C201.281 34.2366 201.037 34.8172 200.55 35.2903C200.062 35.7634 199.464 36 198.755 36C198.046 36 197.436 35.7634 196.927 35.2903C196.439 34.8172 196.196 34.2366 196.196 33.5484Z" fill="#00154C"/>
<path d="M206.893 18.6452V35.7419H204.566V18.6452H206.893ZM204.5 12.871C204.832 12.5699 205.242 12.4194 205.73 12.4194C206.239 12.4194 206.66 12.5806 206.993 12.9032C207.325 13.2043 207.491 13.5914 207.491 14.0645C207.491 14.5376 207.325 14.9355 206.993 15.2581C206.66 15.5591 206.239 15.7097 205.73 15.7097C205.242 15.7097 204.832 15.5591 204.5 15.2581C204.167 14.9355 204.001 14.5376 204.001 14.0645C204.001 13.5914 204.167 13.1935 204.5 12.871Z" fill="#00154C"/>
<path d="M213.078 20.9355C214.828 19.2151 216.956 18.3548 219.46 18.3548C221.986 18.3548 224.124 19.2258 225.874 20.9677C227.625 22.6882 228.5 24.7527 228.5 27.1613C228.5 29.5914 227.625 31.6667 225.874 33.3871C224.102 35.129 221.963 36 219.46 36C216.956 36 214.828 35.1398 213.078 33.4194C211.327 31.6989 210.452 29.6129 210.452 27.1613C210.452 24.7312 211.327 22.6559 213.078 20.9355ZM214.673 31.9355C215.981 33.2473 217.576 33.9032 219.46 33.9032C221.365 33.9032 222.972 33.2473 224.279 31.9355C225.609 30.6237 226.273 29.0323 226.273 27.1613C226.273 25.2903 225.609 23.7097 224.279 22.4194C222.972 21.1075 221.365 20.4516 219.46 20.4516C217.554 20.4516 215.947 21.1075 214.64 22.4194C213.333 23.7097 212.679 25.2903 212.679 27.1613C212.679 29.0538 213.344 30.6452 214.673 31.9355Z" fill="#00154C"/>
<path d="M141.441 35.7393V13.1587H145.264V35.7393H141.441Z" fill="#00154C"/>
</svg>
