<svg width="226" height="31" viewBox="0 0 226 31" fill="none" xmlns="http://www.w3.org/2000/svg">
<path d="M12.9052 1.0079C10.667 1.0079 8.4372 0.991132 6.27865 0.978558C4.22908 0.965984 2.12083 0.95341 0 0.949219V30.4773H12.9429L13.9321 28.7756L11.1155 23.8843L10.0802 25.6656H4.80748V18.2721H7.87975L6.43792 15.7698L7.81269 13.4017H4.80748V5.87825H10.0802L10.3107 6.28481C10.6251 6.83807 10.9436 7.39133 11.258 7.9404L11.8196 8.88345L18.6054 20.5899L21.3969 15.7698L12.9052 1.0079Z" fill="#DA3945"/>
<path d="M29.7114 30.4773V0.949219C27.6241 0.95341 25.5369 0.965984 23.5082 0.978558C21.3455 0.991132 19.1115 1.0079 16.8649 1.0079L15.8171 2.80599L18.6421 7.68053L19.6899 5.87406H24.9584V25.6656H19.6899L11.127 10.8995L8.302 15.774L16.7685 30.4773H29.7114Z" fill="#DA3945"/>
<path d="M54.5627 14.9817C55.2081 14.5386 55.7489 13.9839 56.1745 13.3315C56.7711 12.4174 57.0746 11.3533 57.0746 10.1637C57.0746 7.94833 56.478 6.2493 55.3058 5.11895C54.1406 3.99208 52.3997 3.41992 50.1355 3.41992H42.9521V27.9528H50.3623C52.6334 27.9528 54.4127 27.2935 55.6582 25.9991C56.9002 24.7083 57.5282 22.9221 57.5282 20.6893C57.5282 19.1926 57.1863 17.8878 56.5094 16.8167C56.0001 16.0039 55.3477 15.3898 54.5627 14.9817ZM52.3509 12.6093C51.7996 13.2129 51.0914 13.5059 50.1843 13.5059H46.8107V6.85634H50.1355C51.1856 6.85634 51.9636 7.10754 52.4485 7.60992C52.937 8.1123 53.1847 8.96355 53.1847 10.1393C53.1847 11.1859 52.9125 11.9918 52.3509 12.6093ZM52.7765 23.5535C52.1973 24.2024 51.4298 24.5164 50.4285 24.5164H46.8107V16.8935H50.4913C52.6474 16.8935 53.6522 18.1111 53.6522 20.7207C53.6556 21.9452 53.3591 22.8976 52.7765 23.5535Z" fill="#00154C"/>
<path d="M69.4783 9.44163C69.1155 9.26021 68.6655 9.16602 68.1421 9.16602C67.0048 9.16602 66.0489 9.57769 65.2849 10.3906L65.2604 9.49396H61.5938V27.953H65.3546V15.0201C65.8779 13.6386 66.7397 12.9653 67.9956 12.9653C68.4317 12.9653 68.8399 13.0002 69.2132 13.0699L69.74 13.1676L69.7191 9.56373L69.4783 9.44163Z" fill="#00154C"/>
<path d="M84.3016 23.3998V14.5279C84.2771 12.6998 83.7468 11.2799 82.7281 10.3065C81.7094 9.33664 80.2267 8.84473 78.3218 8.84473C77.1531 8.84473 76.0716 9.09592 75.1122 9.59132C74.1493 10.0902 73.3713 10.788 72.7991 11.6671C72.2235 12.5533 71.9304 13.5022 71.9304 14.4826V14.9256H75.6913V14.4826C75.6913 13.8127 75.9111 13.2789 76.3646 12.8463C76.8252 12.4102 77.4148 12.1974 78.1718 12.1974C79.0021 12.1974 79.6162 12.3788 79.9929 12.7417C80.3662 13.0975 80.5546 13.7429 80.5546 14.6605V16.0839H78.8835C76.6751 16.1083 74.8994 16.684 73.612 17.8004C72.3037 18.9342 71.6409 20.4797 71.6409 22.3916C71.6409 24.129 72.1363 25.507 73.1096 26.4804C74.083 27.4572 75.4436 27.9491 77.1496 27.9491C78.5416 27.9491 79.7452 27.4154 80.736 26.3652C80.8093 26.7874 80.9035 27.4433 81.0186 27.691L81.1373 27.9491H84.8528C84.8528 27.9526 84.312 24.6941 84.3016 23.3998ZM77.5892 24.4499C76.7728 24.4499 76.2007 24.272 75.8902 23.9231C75.5657 23.5603 75.4017 22.9288 75.4017 22.0497C75.4017 21.1286 75.7297 20.4344 76.41 19.9285C77.1217 19.3982 78.1195 19.1191 79.3754 19.0982H80.5546V22.7369C80.3 23.2044 79.9022 23.6056 79.3719 23.9301C78.7963 24.279 78.2137 24.4499 77.5892 24.4499Z" fill="#00154C"/>
<path d="M96.2588 9.16895C94.7551 9.16895 93.4573 9.68877 92.3828 10.718L92.3304 9.4934H88.751V27.9524H92.5119V14.8417C92.8258 14.1753 93.234 13.6311 93.7259 13.2159C94.2179 12.8042 94.7516 12.6054 95.3657 12.6054C96.1506 12.6054 96.7158 12.8356 97.0891 13.3066C97.4833 13.802 97.6822 14.6951 97.6822 15.9616V27.9524H101.429V15.8255C101.38 11.4087 99.6429 9.16895 96.2588 9.16895Z" fill="#00154C"/>
<path d="M114.915 10.1428C113.984 9.28103 112.815 8.84493 111.43 8.84493C109.393 8.84493 107.805 9.62293 106.71 11.158C105.646 12.6477 105.108 14.8142 105.108 17.6017V19.4089C105.129 22.0673 105.691 24.1675 106.776 25.6503C107.892 27.1783 109.452 27.9494 111.413 27.9494C112.909 27.9494 114.144 27.4505 115.1 26.4631L115.191 27.9598H118.676V3.41992H114.915V10.1428ZM114.915 14.0571V22.6953C114.287 23.9198 113.387 24.5129 112.159 24.5129C110.99 24.5129 110.178 24.1257 109.675 23.3337C109.138 22.486 108.866 21.1044 108.866 19.231V17.4831C108.876 15.662 109.152 14.3083 109.689 13.4606C110.192 12.6651 111.004 12.2814 112.173 12.2814C113.363 12.2814 114.259 12.8605 114.915 14.0571Z" fill="#00154C"/>
<path d="M129.518 8.84375C127.338 8.84375 125.607 9.65314 124.383 11.251C123.186 12.8105 122.579 14.977 122.579 17.6843V19.8159C122.604 22.4394 123.242 24.4664 124.48 25.8479C125.733 27.2434 127.537 27.9517 129.846 27.9517C132.543 27.9517 134.58 27.0027 135.91 25.1327L136.105 24.8571L134.05 22.3557L133.708 22.7778C133.188 23.4163 132.627 23.8907 132.044 24.1768C131.465 24.4629 130.781 24.6094 130.007 24.6094C128.803 24.6094 127.913 24.2431 127.285 23.4861C126.65 22.722 126.33 21.4486 126.323 19.6973H136.133V17.3668C136.112 14.5095 135.554 12.3569 134.479 10.9754C133.38 9.56243 131.709 8.84375 129.518 8.84375ZM127.233 13.2361C127.722 12.5383 128.472 12.1999 129.518 12.1999C130.45 12.1999 131.116 12.493 131.556 13.0896C132.02 13.721 132.295 14.8235 132.369 16.3446H126.368C126.473 14.9526 126.762 13.9059 127.233 13.2361Z" fill="#00154C"/>
<path d="M146.328 3.41992C144.612 3.41992 143.254 3.97812 142.299 5.07359C141.36 6.15162 140.868 7.65178 140.833 9.54617V11.1336H138.545V14.3432H140.833V27.9598H144.594V14.3432H147.598V11.1336H144.594V9.91598C144.594 7.17382 145.742 6.85634 146.604 6.85634C147.033 6.85634 147.441 6.9017 147.818 6.98892L148.331 7.11102L148.529 3.81764L148.198 3.71298C147.574 3.51761 146.942 3.41992 146.328 3.41992Z" fill="#00154C"/>
<path d="M156.979 8.84473C154.799 8.84473 153.068 9.65412 151.844 11.252C150.647 12.8114 150.04 14.978 150.04 17.6852V19.8169C150.064 22.4404 150.703 24.4674 151.941 25.8489C153.194 27.2444 154.998 27.9526 157.307 27.9526C160.004 27.9526 162.041 27.0037 163.371 25.1337L163.566 24.8581L161.511 22.3567L161.169 22.7788C160.649 23.4173 160.088 23.8917 159.505 24.1778C158.926 24.4639 158.242 24.6104 157.468 24.6104C156.264 24.6104 155.374 24.2441 154.746 23.487C154.111 22.723 153.79 21.4496 153.783 19.6982H163.594V17.3678C163.573 14.5105 163.015 12.3579 161.94 10.9764C160.838 9.56341 159.17 8.84473 156.979 8.84473ZM154.694 13.2371C155.182 12.5393 155.933 12.2009 156.979 12.2009C157.911 12.2009 158.577 12.494 159.017 13.0905C159.481 13.722 159.756 14.8245 159.829 16.3455H153.829C153.933 14.9535 154.223 13.9069 154.694 13.2371Z" fill="#00154C"/>
<path d="M174.542 9.16895C173.038 9.16895 171.74 9.68877 170.666 10.718L170.614 9.4934H167.034V27.9524H170.795V14.8417C171.106 14.1753 171.517 13.6311 172.009 13.2159C172.501 12.8042 173.035 12.6054 173.649 12.6054C174.434 12.6054 174.999 12.8356 175.372 13.3066C175.767 13.802 175.965 14.6951 175.965 15.9616V27.9524H179.712V15.8255C179.667 11.4087 177.926 9.16895 174.542 9.16895Z" fill="#00154C"/>
<path d="M193.22 10.1428C192.288 9.28103 191.12 8.84493 189.735 8.84493C187.697 8.84493 186.11 9.62293 185.014 11.158C183.95 12.6477 183.413 14.8142 183.413 17.6017V19.4089C183.434 22.0673 183.996 24.1675 185.081 25.6503C186.197 27.1783 187.757 27.9494 189.717 27.9494C191.214 27.9494 192.449 27.4505 193.408 26.4631L193.499 27.9598H196.984V3.41992H193.22V10.1428ZM193.22 14.0571V22.6953C192.592 23.9198 191.692 24.5129 190.464 24.5129C189.295 24.5129 188.482 24.1257 187.98 23.3337C187.443 22.486 187.17 21.1044 187.17 19.231V17.4831C187.181 15.662 187.457 14.3083 187.994 13.4606C188.496 12.6651 189.309 12.2814 190.478 12.2814C191.667 12.2814 192.564 12.8605 193.22 14.0571Z" fill="#00154C"/>
<path d="M207.804 8.84375C205.624 8.84375 203.893 9.65314 202.669 11.251C201.472 12.8105 200.865 14.977 200.865 17.6843V19.8159C200.89 22.4394 201.528 24.4664 202.767 25.8479C204.019 27.2434 205.823 27.9517 208.132 27.9517C210.829 27.9517 212.867 27.0027 214.196 25.1327L214.391 24.8571L212.336 22.3557L211.991 22.7778C211.471 23.4163 210.909 23.8907 210.327 24.1768C209.748 24.4629 209.064 24.6094 208.289 24.6094C207.086 24.6094 206.196 24.2431 205.568 23.4861C204.933 22.722 204.612 21.4486 204.605 19.6973H214.416V17.3668C214.395 14.5095 213.836 12.3569 212.762 10.9754C211.666 9.56243 209.995 8.84375 207.804 8.84375ZM205.523 13.2361C206.011 12.5383 206.761 12.1999 207.808 12.1999C208.739 12.1999 209.406 12.493 209.845 13.0896C210.309 13.721 210.581 14.8235 210.658 16.3446H204.658C204.759 14.9526 205.048 13.9059 205.523 13.2361Z" fill="#00154C"/>
<path d="M225.978 9.56373L225.734 9.44163C225.371 9.26021 224.921 9.16602 224.398 9.16602C223.261 9.16602 222.305 9.57769 221.541 10.3906L221.516 9.49047H217.85V27.9495H221.61V15.0201C222.13 13.6386 222.996 12.9653 224.251 12.9653C224.688 12.9653 225.096 13.0002 225.469 13.0699L225.999 13.1711L225.978 9.56373Z" fill="#00154C"/>
</svg>
