<svg width="169" height="54" viewBox="0 0 169 54" fill="none" xmlns="http://www.w3.org/2000/svg">
<path fill-rule="evenodd" clip-rule="evenodd" d="M168.755 18.7503L168.488 0.570347C168.475 0.404067 168.396 0.251644 168.269 0.146333C168.145 0.0396365 167.981 -0.0116348 167.816 0.00222336C167.771 0.0049947 167.725 0.0146943 167.683 0.0271654L150.686 6.58415L135.483 12.4511C135.05 12.6187 135.184 13.2409 135.683 13.3863L151.278 17.8869C153.949 18.6629 156.312 20.2523 158.033 22.4319L168.057 35.1594C168.375 35.5653 169.006 35.4544 169 34.9931L168.758 18.7503H168.755ZM164.187 20.5031C164.168 20.7026 164.022 20.8661 163.825 20.9077C163.628 20.9479 163.427 20.855 163.332 20.6791C160.612 16.2256 156.079 13.1757 150.917 12.3291C150.715 12.3083 150.552 12.1573 150.515 11.9592C150.48 11.761 150.578 11.5615 150.76 11.4714L164.232 5.27331C164.476 5.16799 164.759 5.27885 164.865 5.52134C164.893 5.58508 164.906 5.65436 164.904 5.72503L164.185 20.5031" fill="#71C347"/>
<path fill-rule="evenodd" clip-rule="evenodd" d="M153.77 21.0398L148.124 21.6911C147.967 21.709 147.84 21.8282 147.813 21.9834C147.787 22.1386 147.869 22.2925 148.01 22.3617L151.768 24.1506C151.849 24.1894 151.924 24.2392 151.991 24.2989L155.082 27.1187C155.198 27.224 155.373 27.2406 155.508 27.1589C155.642 27.0758 155.706 26.915 155.664 26.7626L154.154 21.2961C154.107 21.1285 153.945 21.0204 153.77 21.0398Z" fill="#71C347"/>
<path fill-rule="evenodd" clip-rule="evenodd" d="M5.29457 17.7255V44.7141C5.29457 45.5594 4.60771 46.2439 3.75997 46.2439H0V19.2553C0 18.41 0.686853 17.7255 1.53459 17.7255H5.29457ZM18.6266 26.2169C20.0072 26.2003 21.3807 26.4386 22.6738 26.9249C25.0699 27.8228 26.9499 29.7239 27.8143 32.1267C28.3054 33.4819 28.5455 34.9147 28.5232 36.3544C28.5455 37.7983 28.3054 39.2324 27.8143 40.5904C27.3772 41.789 26.6905 42.8809 25.7997 43.794C24.9145 44.6851 23.849 45.3765 22.6738 45.8213C21.3807 46.3063 20.0072 46.5474 18.6266 46.5293C17.2349 46.5474 15.8518 46.3076 14.5502 45.8226C13.371 45.3779 12.3025 44.6864 11.4145 43.794C10.5225 42.8795 9.83285 41.7876 9.39031 40.5904C8.89351 39.2339 8.64934 37.7983 8.6702 36.3544C8.64803 34.9133 8.8922 33.4806 9.39162 32.1282C9.83285 30.9365 10.5225 29.8514 11.4132 28.9439C12.3039 28.0571 13.3723 27.3683 14.5489 26.9249C15.8531 26.4399 17.2349 26.1975 18.6266 26.2169ZM18.6266 42.5706C20.1348 42.5706 21.2544 42.0509 21.9828 41.0116C22.7112 39.9724 23.0762 38.4259 23.0762 36.3724C23.0762 34.3327 22.7112 32.7933 21.9828 31.754C21.2544 30.7148 20.1348 30.1951 18.6251 30.1951C17.0781 30.1951 15.9404 30.7148 15.212 31.7553C14.4823 32.7946 14.1173 34.3327 14.1173 36.3724C14.1173 38.4259 14.4823 39.9724 15.2107 41.0116C15.9391 42.0509 17.0796 42.5706 18.6266 42.5706ZM44.9423 46.2426C44.551 46.2647 44.1598 46.1927 43.8018 46.0333C43.4883 45.8254 43.2607 45.5137 43.1595 45.1534L42.7362 43.9091C42.2743 44.315 41.7915 44.6947 41.2891 45.0481C40.8313 45.3668 40.3415 45.644 39.831 45.8698C39.3134 46.097 38.7738 46.2661 38.2201 46.3769C37.5958 46.4961 36.9645 46.5543 36.3305 46.5487C35.5243 46.5585 34.7209 46.4421 33.9509 46.2051C33.2711 45.9945 32.6398 45.6467 32.1001 45.1812C31.5743 44.7183 31.1635 44.1377 30.9013 43.4892C30.6072 42.7465 30.4643 41.9525 30.4796 41.1544C30.4879 40.3964 30.678 39.6523 31.0346 38.9844C31.4924 38.1752 32.1487 37.4962 32.9451 37.014C33.8469 36.4223 35.0484 35.9277 36.551 35.5327C38.0537 35.1391 39.9364 34.9161 42.2007 34.8635V33.8519C42.2007 32.6145 41.9385 31.7069 41.414 31.1262C40.8896 30.5443 40.1348 30.256 39.1511 30.256C38.5322 30.2394 37.9163 30.3253 37.328 30.5138C36.8881 30.6662 36.4622 30.8506 36.0516 31.068L35.0249 31.6223C34.6821 31.8011 34.2992 31.8898 33.9134 31.8815C33.5804 31.8926 33.2544 31.7956 32.9839 31.6044C32.7369 31.4242 32.526 31.1998 32.3596 30.9433L31.4188 29.2611C32.5426 28.24 33.851 27.4431 35.2759 26.9166C36.7398 26.39 38.2867 26.1268 39.8406 26.1406C40.9201 26.124 41.9926 26.3194 42.9971 26.7157C43.8878 27.0746 44.6926 27.6192 45.3557 28.3133C46.0134 29.0159 46.5198 29.8459 46.8417 30.7521C47.1956 31.7457 47.3703 32.7946 47.3592 33.8492V46.2439L44.9423 46.2426ZM37.9801 42.9918C38.7668 43.0084 39.5478 42.849 40.2639 42.5234C40.9881 42.1576 41.643 41.6684 42.2007 41.0781V38.0186C41.1199 38.0477 40.0432 38.1571 38.9777 38.3443C38.2729 38.462 37.586 38.6713 36.9339 38.965C36.5052 39.152 36.1347 39.4486 35.8601 39.8255C35.6519 40.1414 35.5424 40.51 35.5437 40.8884C35.5437 41.6532 35.7588 42.195 36.1875 42.5137C36.6162 42.8324 37.2142 42.9918 37.9801 42.9918ZM51.5035 46.2426V26.5245H54.7641C55.3675 26.4802 55.9184 26.8626 56.0876 27.4418L56.4138 28.8192C56.8036 28.4423 57.2185 28.0903 57.6527 27.7661C58.0786 27.4501 58.5351 27.1743 59.0137 26.9443C59.5105 26.7087 60.0308 26.5286 60.5677 26.4094C61.163 26.2779 61.7706 26.2141 62.3797 26.2182C63.3621 26.2003 64.336 26.3887 65.2378 26.7725C66.0468 27.1244 66.7641 27.6538 67.3398 28.3217C67.9253 29.0159 68.3625 29.8237 68.6246 30.6926C68.9215 31.6722 69.0672 32.6921 69.0547 33.7147V44.7128C69.0547 45.5581 68.3693 46.2426 67.5216 46.2426H63.7797V33.7161C63.7797 32.6187 63.5244 31.7679 63.0125 31.1623C62.5018 30.5553 61.747 30.2533 60.7494 30.2533C60.0197 30.2477 59.2996 30.414 58.6489 30.741C57.9691 31.0902 57.3446 31.5379 56.798 32.0713V46.2426H51.5035ZM80.9868 26.1794C81.7915 26.1753 82.5921 26.2625 83.3759 26.4371C84.0905 26.5979 84.7828 26.846 85.4377 27.1743L90.8863 24.7078L91.1498 24.5929L91.2497 24.7509V27.1924C91.2636 27.4598 91.1707 27.7217 90.9903 27.9198C90.8181 28.0999 90.5324 28.2317 88.5248 30.5596C88.7468 31.2053 88.8578 31.8843 88.8508 32.5673C88.8661 33.4861 88.6594 34.3937 88.2472 35.2154C87.8463 35.9969 87.2802 36.6828 86.5879 37.2246C85.8429 37.8011 84.9979 38.2362 84.0961 38.5078C83.0887 38.8126 82.0399 38.965 80.9882 38.9567C80.6414 38.9567 80.3041 38.9429 79.9711 38.9179C79.6381 38.893 79.3135 38.8542 78.993 38.8028C78.4685 39.1216 78.2064 39.4791 78.2049 39.874C78.1966 40.2315 78.4158 40.553 78.7529 40.6777C79.2108 40.8675 79.6965 40.9867 80.1904 41.031C80.7856 41.1017 81.4627 41.1461 82.2244 41.1655C82.9848 41.1862 83.7588 41.2265 84.5441 41.2902C85.3254 41.3539 86.0994 41.4648 86.8654 41.6255C87.5842 41.7682 88.2723 42.0329 88.8994 42.4098C89.4891 42.7673 89.9816 43.2634 90.3381 43.8537C90.7295 44.5604 90.9181 45.3613 90.8848 46.1677C90.8806 47.0629 90.656 47.9414 90.2327 48.7312C89.7665 49.5944 89.1228 50.3525 88.3431 50.9483C87.4287 51.6452 86.4006 52.176 85.3017 52.5182C83.974 52.9311 82.5879 53.1321 81.1977 53.1099C79.8644 53.1321 78.5337 52.988 77.2351 52.6804C76.2527 52.4504 75.3135 52.0624 74.4547 51.5331C73.7832 51.1201 73.2199 50.552 72.8134 49.8786C72.465 49.2868 72.2805 48.6134 72.2778 47.9275C72.2556 47.1072 72.5428 46.3091 73.0825 45.6896C73.6888 45.03 74.4464 44.5257 75.2885 44.2167C74.8071 43.9535 74.3991 43.5751 74.0995 43.1165C73.7832 42.583 73.6292 41.9677 73.6583 41.3484C73.6846 40.6833 73.908 40.0403 74.3007 39.5027C74.8001 38.7988 75.4787 38.2417 76.2667 37.8855C75.2982 37.3756 74.4769 36.6288 73.8789 35.7156C73.2851 34.7733 72.9812 33.6786 73.0047 32.5688C72.9909 31.6473 73.199 30.7355 73.6097 29.9096C74.012 29.1198 74.5851 28.4312 75.2885 27.8908C76.0475 27.3157 76.9063 26.8833 77.822 26.6187C78.8487 26.318 79.917 26.1698 80.9868 26.1794ZM85.9941 47.0463C86.0052 46.7331 85.8872 46.4283 85.6667 46.2051C85.4197 45.9695 85.1213 45.7936 84.7953 45.6883C84.3749 45.5497 83.9407 45.4555 83.5008 45.4112C83.0014 45.3543 82.47 45.3086 81.908 45.2767C81.3447 45.2434 80.7592 45.2157 80.1516 45.1908C79.5452 45.1658 78.9527 45.1215 78.377 45.0564C77.9565 45.3016 77.5862 45.6218 77.2851 46.0028C77.0076 46.3547 76.8578 46.7898 76.8619 47.2375C76.8439 47.9026 77.2198 48.5178 77.8206 48.8061C78.2493 49.025 78.7086 49.1774 79.1831 49.255C79.8795 49.3742 80.5858 49.4282 81.2934 49.4171C82.0329 49.4282 82.7711 49.3714 83.4995 49.2452C84.0087 49.1621 84.5011 48.9973 84.9562 48.7575C85.6056 48.4347 86.0108 47.7681 85.9941 47.0463ZM80.9855 35.6463C82.0731 35.6463 82.8751 35.3719 83.394 34.8247C83.9239 34.2468 84.2028 33.4833 84.171 32.7004C84.171 31.7956 83.9128 31.0847 83.394 30.5692C82.8765 30.0524 82.0731 29.7932 80.9855 29.7932C79.8989 29.7932 79.0985 30.0524 78.5878 30.5692C78.0758 31.0861 77.8206 31.7956 77.8206 32.7004C77.7929 33.4791 78.0703 34.2385 78.5976 34.8149C79.1151 35.3692 79.9115 35.6463 80.9855 35.6463ZM99.3441 17.7255V44.7141C99.3441 45.5594 98.6559 46.2439 97.8095 46.2439H94.0494V19.2553C94.0494 18.41 94.7364 17.7255 95.5841 17.7255H99.3441ZM109.836 20.9194C109.84 21.349 109.749 21.773 109.568 22.1624C109.391 22.5406 109.148 22.8843 108.847 23.1767C108.544 23.4718 108.186 23.7061 107.792 23.8653C107.382 24.0316 106.942 24.1175 106.498 24.1148C106.073 24.1148 105.651 24.0316 105.26 23.8653C104.877 23.7046 104.528 23.4705 104.233 23.1767C103.941 22.8843 103.703 22.5406 103.534 22.1624C103.359 21.7717 103.271 21.3477 103.275 20.9194C103.272 20.4885 103.359 20.0603 103.534 19.6668C103.701 19.2858 103.939 18.9379 104.233 18.6428C104.529 18.3504 104.877 18.1163 105.26 17.9555C105.651 17.7893 106.073 17.7047 106.498 17.7061C106.942 17.7033 107.382 17.7878 107.792 17.9555C108.186 18.1148 108.544 18.3476 108.847 18.6428C109.149 18.9379 109.393 19.2843 109.568 19.6668C109.749 20.0603 109.839 20.4871 109.836 20.9194ZM109.203 26.5231V44.7128C109.203 45.5581 108.516 46.2426 107.669 46.2426H103.909V28.0543C103.909 27.209 104.597 26.5231 105.445 26.5231H109.203ZM127.982 46.2426C127.305 46.2426 126.87 45.9377 126.678 45.3253L126.237 43.6028C125.466 44.4551 124.554 45.1686 123.542 45.7173C122.443 46.2814 121.22 46.5613 119.984 46.5293C118.972 46.5419 117.971 46.3119 117.067 45.8601C116.161 45.3931 115.376 44.7224 114.777 43.8993C114.084 42.946 113.575 41.8735 113.27 40.7359C112.893 39.3392 112.712 37.8981 112.733 36.4514C112.722 35.0643 112.926 33.6829 113.338 32.3582C113.7 31.1706 114.281 30.0621 115.054 29.088C115.78 28.1818 116.696 27.4431 117.739 26.9264C118.825 26.3943 120.021 26.1254 121.23 26.1406C122.159 26.1129 123.082 26.2764 123.944 26.6187C124.681 26.9374 125.358 27.3781 125.948 27.9198V19.2553C125.948 18.41 126.637 17.7255 127.484 17.7255H131.243V46.2426H127.982ZM121.806 42.4375C122.624 42.4652 123.434 42.2768 124.156 41.8916C124.846 41.48 125.452 40.9451 125.95 40.3147V31.6515C125.514 31.1249 124.959 30.712 124.328 30.446C123.74 30.2159 123.111 30.0995 122.477 30.1023C121.876 30.094 121.279 30.2187 120.731 30.4654C120.19 30.7216 119.724 31.1138 119.379 31.6044C118.965 32.2015 118.668 32.8736 118.507 33.5816C118.286 34.5211 118.184 35.4856 118.2 36.45C118.184 37.3882 118.269 38.3234 118.451 39.2422C118.572 39.9003 118.817 40.5294 119.169 41.099C119.447 41.5382 119.843 41.8929 120.311 42.1216C120.781 42.3363 121.291 42.4444 121.807 42.4361L121.806 42.4375ZM144.211 26.2169C145.405 26.2058 146.59 26.4094 147.712 26.8196C148.746 27.202 149.687 27.7979 150.473 28.5711C151.271 29.372 151.885 30.3336 152.276 31.3923C152.724 32.6145 152.943 33.9074 152.919 35.2071C152.924 35.5341 152.905 35.8584 152.862 36.1826C152.838 36.3973 152.772 36.6039 152.671 36.7951C152.59 36.9392 152.461 37.0514 152.305 37.1096C152.114 37.1733 151.913 37.2025 151.71 37.1955H139.837C140.003 39.0454 140.53 40.3964 141.418 41.2514C142.309 42.105 143.476 42.5331 144.92 42.5318C145.559 42.5456 146.197 42.4582 146.811 42.274C147.292 42.1216 147.76 41.9304 148.209 41.7004C148.612 41.491 148.977 41.2985 149.303 41.1267C149.6 40.9617 149.932 40.873 150.272 40.869C150.647 40.8523 151.007 41.0241 151.229 41.3262L152.765 43.2398C152.228 43.8675 151.601 44.412 150.905 44.8554C150.244 45.2754 149.535 45.6163 148.796 45.8698C148.078 46.1151 147.339 46.2882 146.589 46.3867C145.876 46.4794 145.16 46.528 144.439 46.5293C143.12 46.5404 141.811 46.3104 140.575 45.8504C139.4 45.4125 138.335 44.728 137.448 43.8426C136.523 42.9017 135.807 41.778 135.348 40.5432C134.809 39.08 134.55 37.5308 134.58 35.972C134.572 34.6806 134.796 33.3974 135.241 32.1849C136.087 29.8403 137.88 27.9573 140.183 26.9914C141.458 26.458 142.829 26.1947 144.211 26.2169ZM144.308 29.9277C143.042 29.9277 142.05 30.288 141.334 31.0085C140.617 31.7291 140.152 32.7462 139.933 34.0598H148.182C148.185 33.529 148.11 32.9997 147.96 32.4897C147.821 32.0075 147.582 31.5573 147.261 31.1706C146.932 30.7813 146.519 30.4709 146.054 30.2616C145.502 30.026 144.906 29.9124 144.308 29.9277Z" fill="#00154C"/>
</svg>
