<svg width="198" height="34" viewBox="0 0 198 34" fill="none" xmlns="http://www.w3.org/2000/svg">
<path d="M23.3032 20.0351L13.2904 30.2219C12.4483 31.079 11.4822 32.0567 10.0693 32.6006C3.57847 35.0956 -1.71479 29.8181 1.01366 24.0249C1.60511 25.8686 4.05488 26.8537 6.72876 25.6197C7.33935 25.338 7.87915 24.9162 8.35258 24.4348L17.9538 14.6666C21.0157 11.8453 25.9844 16.4238 23.3032 20.0351Z" fill="#00154C"/>
<path d="M1.053 16.6189L11.1439 6.43197C11.9926 5.57504 12.9662 4.59735 14.3901 4.05335C20.5957 1.68514 25.52 6.31725 23.6799 11.7453C23.6755 11.7557 23.5982 12.0717 23.5907 12.0627C22.0612 10.231 18.7169 10.0105 16.5528 11.7825L6.44403 21.9871C3.35834 24.8084 -1.64922 20.2299 1.053 16.6189Z" fill="#00154C"/>
<path d="M50.1653 30.4915C48.6444 32.004 46.4841 32.7611 43.6843 32.7611C42.0598 32.7611 40.7192 32.4827 39.664 31.9279C38.6106 31.3714 38.0847 30.4 38.0847 29.0103C38.0847 28.4243 38.1665 27.9144 38.3334 27.4823C38.497 27.0502 38.6857 26.7113 38.8977 26.4642C39.4387 26.5869 39.9429 26.6872 40.4103 26.765C40.8761 26.8428 41.3653 26.8808 41.8778 26.8808C44.1968 26.8808 45.3554 25.6466 45.3554 23.1767V3.96101C45.6859 3.89878 46.1601 3.82102 46.7778 3.72768C47.3956 3.63602 48.0049 3.58936 48.6059 3.58936C49.9616 3.58936 50.9399 3.821 51.5427 4.28419C52.1437 4.74751 52.4459 5.65834 52.4459 7.01524V24.0547C52.4459 26.8341 51.6846 28.9792 50.1653 30.4915Z" fill="#00154C"/>
<path d="M68.2987 14.7013C66.8829 14.7013 65.7844 15.2424 65.0014 16.3227C64.2183 17.403 63.8277 18.9465 63.8277 20.9533C63.8277 23.0206 64.2117 24.5883 64.9796 25.653C65.7477 26.7179 66.8528 27.2501 68.2987 27.2501C69.7445 27.2501 70.8496 26.7109 71.6193 25.6306C72.3856 24.5485 72.7697 22.9912 72.7697 20.9533C72.7697 18.9777 72.379 17.4428 71.5959 16.3469C70.813 15.2493 69.7145 14.7013 68.2987 14.7013ZM79.815 20.9533C79.815 22.7751 79.5445 24.4189 79.0019 25.8847C78.461 27.3505 77.6847 28.5932 76.6763 29.6113C75.6679 30.6294 74.4558 31.4176 73.0401 31.9724C71.626 32.5289 70.045 32.8073 68.2987 32.8073C66.5523 32.8073 64.9646 32.5359 63.5339 31.9967C62.1031 31.4555 60.8844 30.6777 59.8759 29.658C58.8676 28.6398 58.0929 27.3972 57.5503 25.9297C57.0094 24.4639 56.7373 22.8045 56.7373 20.9533C56.7373 19.1626 57.016 17.5344 57.5737 16.0686C58.1297 14.6028 58.9126 13.3601 59.921 12.3402C60.9295 11.3222 62.1482 10.5357 63.579 9.97917C65.0097 9.42433 66.5824 9.146 68.2987 9.146C70.015 9.146 71.5809 9.42433 72.9951 9.97917C74.4107 10.5357 75.6228 11.3291 76.6313 12.3627C77.6396 13.3981 78.4226 14.6409 78.9803 16.091C79.5362 17.543 79.815 19.1626 79.815 20.9533Z" fill="#00154C"/>
<path d="M94.0391 14.7011C93.3467 14.7011 92.7219 14.8031 92.1659 15.0019C91.6068 15.2041 91.0893 15.4582 90.6085 15.7659V26.3702C90.9691 26.6173 91.4199 26.8178 91.9631 26.9717C92.504 27.1273 93.1363 27.2032 93.8588 27.2032C95.3651 27.2032 96.5622 26.6795 97.4499 25.6304C98.3364 24.5812 98.781 23.0065 98.781 20.9064C98.781 18.7458 98.354 17.1729 97.495 16.1841C96.6373 15.1955 95.4853 14.7011 94.0391 14.7011ZM95.305 9.14575C96.7788 9.14575 98.1649 9.39297 99.4584 9.88558C100.754 10.3799 101.876 11.1214 102.824 12.1083C103.771 13.0971 104.517 14.3244 105.06 15.79C105.601 17.2558 105.873 18.9619 105.873 20.9064C105.873 22.8509 105.586 24.5638 105.013 26.0469C104.442 27.5282 103.638 28.7711 102.597 29.7735C101.559 30.776 100.31 31.5331 98.8498 32.0431C97.3898 32.5529 95.7558 32.807 93.949 32.807C92.0532 32.807 90.4266 32.5754 89.0725 32.1122C87.7169 31.649 86.5883 31.0941 85.6851 30.4441C84.3895 29.5506 83.7434 28.377 83.7434 26.9267V1.96734C84.074 1.87574 84.5115 1.7824 85.0524 1.68906C85.5949 1.59745 86.196 1.55078 86.8587 1.55078C88.2144 1.55078 89.1844 1.7824 89.7721 2.24559C90.3581 2.70891 90.6536 3.58863 90.6536 4.88499V10.1638C91.2546 9.88558 91.948 9.64705 92.7306 9.44651C93.512 9.24596 94.3722 9.14575 95.305 9.14575Z" fill="#00154C"/>
<path d="M132.788 32.4357C131.434 32.4357 130.462 32.2128 129.875 31.7651C129.289 31.3174 128.993 30.4445 128.993 29.1481V1.96766C129.295 1.87606 129.724 1.78272 130.282 1.68938C130.838 1.59777 131.447 1.5511 132.11 1.5511C133.436 1.5511 134.399 1.78272 135 2.24596C135.603 2.70916 135.905 3.589 135.905 4.88536V32.0659C135.573 32.1574 135.135 32.2422 134.594 32.32C134.052 32.3977 133.45 32.4357 132.788 32.4357ZM116.35 11.4605H124.026C124.176 11.77 124.335 12.1554 124.501 12.6186C124.666 13.0819 124.75 13.5917 124.75 14.1449C124.75 15.1335 124.531 15.844 124.095 16.2762C123.658 16.7082 123.093 16.9243 122.401 16.9243H116.666V32.0659C116.363 32.1574 115.942 32.2422 115.401 32.32C114.859 32.3977 114.257 32.4357 113.596 32.4357C112.24 32.4357 111.262 32.2128 110.658 31.7651C110.056 31.3174 109.755 30.4445 109.755 29.1481V9.46931C109.755 7.95684 110.005 6.64492 110.5 5.53354C110.997 4.42217 111.682 3.5199 112.555 2.82505C113.428 2.1302 114.452 1.61333 115.627 1.27282C116.801 0.934031 118.066 0.764648 119.421 0.764648C121.557 0.764648 123.147 1.04985 124.185 1.62025C125.223 2.19242 125.743 3.12581 125.743 4.42217C125.743 5.00813 125.629 5.52667 125.403 5.97431C125.178 6.42194 124.915 6.76937 124.614 7.0149C124.041 6.82991 123.432 6.67603 122.784 6.55158C122.137 6.42894 121.409 6.36672 120.594 6.36672C119.208 6.36672 118.156 6.6208 117.433 7.13066C116.711 7.64052 116.35 8.49612 116.35 9.70096V11.4605Z" fill="#00154C"/>
<path d="M151.531 14.7013C150.116 14.7013 149.016 15.2424 148.234 16.3227C147.451 17.403 147.061 18.9465 147.061 20.9533C147.061 23.0206 147.444 24.5883 148.213 25.653C148.98 26.7179 150.086 27.2501 151.531 27.2501C152.977 27.2501 154.083 26.7109 154.851 25.6306C155.618 24.5485 156.002 22.9912 156.002 20.9533C156.002 18.9777 155.611 17.4428 154.829 16.3469C154.045 15.2493 152.947 14.7013 151.531 14.7013ZM163.048 20.9533C163.048 22.7751 162.777 24.4189 162.234 25.8847C161.693 27.3505 160.917 28.5932 159.909 29.6113C158.901 30.6294 157.689 31.4176 156.273 31.9724C154.859 32.5289 153.277 32.8073 151.531 32.8073C149.785 32.8073 148.198 32.5359 146.766 31.9967C145.335 31.4555 144.117 30.6777 143.109 29.658C142.1 28.6398 141.326 27.3972 140.782 25.9297C140.241 24.4639 139.97 22.8045 139.97 20.9533C139.97 19.1626 140.249 17.5344 140.806 16.0686C141.362 14.6028 142.145 13.3601 143.154 12.3402C144.162 11.3222 145.38 10.5357 146.811 9.97917C148.243 9.42433 149.815 9.146 151.531 9.146C153.247 9.146 154.814 9.42433 156.227 9.97917C157.644 10.5357 158.856 11.3291 159.864 12.3627C160.872 13.3981 161.656 14.6409 162.213 16.091C162.769 17.543 163.048 19.1626 163.048 20.9533Z" fill="#00154C"/>
<path d="M181.877 18.8683C181.607 20.0109 181.304 21.1845 180.973 22.3875C180.643 23.5922 180.311 24.766 179.98 25.9068C179.65 27.0493 179.333 28.1002 179.033 29.056C178.732 30.0118 178.489 30.8 178.309 31.4171C177.496 32.1569 176.2 32.5286 174.426 32.5286C173.343 32.5286 172.393 32.373 171.581 32.0653C170.769 31.7576 170.225 31.2945 169.955 30.6756C169.623 29.9341 169.232 28.7621 168.781 27.1581C168.329 25.5523 167.885 23.7928 167.448 21.8794C167.012 19.9642 166.598 18.0197 166.207 16.044C165.815 14.0684 165.5 12.3398 165.257 10.8585C165.62 10.4574 166.123 10.11 166.772 9.81625C167.418 9.52237 168.119 9.37549 168.872 9.37549C169.834 9.37549 170.618 9.60015 171.219 10.0478C171.822 10.4955 172.197 11.2595 172.349 12.3398C172.648 14.5005 172.913 16.3517 173.139 17.8952C173.364 19.4405 173.568 20.7524 173.749 21.831C173.929 22.9129 174.087 23.7841 174.222 24.4478C174.357 25.1134 174.456 25.6301 174.516 25.9983H174.696C174.817 25.5057 174.997 24.766 175.239 23.7772C175.479 22.7903 175.765 21.6703 176.098 20.4206C176.428 19.169 176.781 17.826 177.157 16.3915C177.535 14.9568 177.903 13.5135 178.264 12.0632C178.777 11.7538 179.309 11.5136 179.867 11.3441C180.425 11.1748 181.094 11.0901 181.877 11.0901C182.84 11.0901 183.661 11.2508 184.338 11.5758C185.015 11.9008 185.445 12.3864 185.626 13.0346C186.016 14.4227 186.393 15.7899 186.756 17.1312C187.116 18.476 187.447 19.7187 187.747 20.8595C188.049 22.0021 188.313 23.0202 188.539 23.9156C188.764 24.8108 188.937 25.5057 189.057 25.9983H189.283C189.703 23.5611 190.112 21.0065 190.502 18.336C190.894 15.6655 191.255 12.9568 191.587 10.2085C192.067 9.93202 192.581 9.72291 193.123 9.58459C193.664 9.44458 194.206 9.37549 194.749 9.37549C195.681 9.37549 196.455 9.58459 197.075 10.0011C197.691 10.4178 198 11.1367 198 12.1549C198 12.6181 197.916 13.344 197.751 14.331C197.586 15.3181 197.374 16.4294 197.12 17.6653C196.863 18.8994 196.569 20.2045 196.238 21.5769C195.908 22.9511 195.577 24.2715 195.245 25.5368C194.912 26.802 194.59 27.9602 194.274 29.0094C193.958 30.0603 193.694 30.8606 193.484 31.4171C193.153 31.7576 192.596 32.0273 191.814 32.2278C191.029 32.4283 190.188 32.5286 189.283 32.5286C186.996 32.5286 185.655 31.9582 185.265 30.8156C185.054 30.1985 184.797 29.4414 184.497 28.5462C184.196 27.6508 183.887 26.6707 183.572 25.606C183.255 24.5412 182.946 23.4298 182.645 22.2718C182.343 21.1154 182.088 19.9798 181.877 18.8683Z" fill="#00154C"/>
</svg>
