<svg width="150" height="40" viewBox="0 0 150 40" fill="none" xmlns="http://www.w3.org/2000/svg">
  <path d="M18.5 8C12.1487 8 7 13.1487 7 19.5C7 25.8513 12.1487 31 18.5 31C24.8513 31 30 25.8513 30 19.5C30 13.1487 24.8513 8 18.5 8ZM18.5 28C13.8056 28 10 24.1944 10 19.5C10 14.8056 13.8056 11 18.5 11C23.1944 11 27 14.8056 27 19.5C27 24.1944 23.1944 28 18.5 28Z" fill="#3B82F6"/>
  <path d="M41.9062 25.5V14.5H44.9062V25.5H41.9062ZM43.4062 12.8C42.9062 12.8 42.4896 12.6333 42.1562 12.3C41.8229 11.9667 41.6562 11.55 41.6562 11.05C41.6562 10.55 41.8229 10.1333 42.1562 9.8C42.4896 9.46667 42.9062 9.3 43.4062 9.3C43.9062 9.3 44.3229 9.46667 44.6562 9.8C44.9896 10.1333 45.1562 10.55 45.1562 11.05C45.1562 11.55 44.9896 11.9667 44.6562 12.3C44.3229 12.6333 43.9062 12.8 43.4062 12.8Z" fill="#3B82F6"/>
  <path d="M54.0781 25.7C52.7448 25.7 51.5781 25.4 50.5781 24.8C49.5781 24.2 48.7948 23.3667 48.2281 22.3C47.6615 21.2333 47.3781 19.9833 47.3781 18.55C47.3781 17.1167 47.6615 15.8667 48.2281 14.8C48.7948 13.7333 49.5781 12.9 50.5781 12.3C51.5781 11.7 52.7448 11.4 54.0781 11.4C55.4115 11.4 56.5781 11.7 57.5781 12.3C58.5781 12.9 59.3615 13.7333 59.9281 14.8C60.4948 15.8667 60.7781 17.1167 60.7781 18.55C60.7781 19.9833 60.4948 21.2333 59.9281 22.3C59.3615 23.3667 58.5781 24.2 57.5781 24.8C56.5781 25.4 55.4115 25.7 54.0781 25.7ZM54.0781 23C55.1448 23 56.0115 22.6 56.6781 21.8C57.3448 21 57.6781 19.9167 57.6781 18.55C57.6781 17.1833 57.3448 16.1 56.6781 15.3C56.0115 14.5 55.1448 14.1 54.0781 14.1C53.0115 14.1 52.1448 14.5 51.4781 15.3C50.8115 16.1 50.4781 17.1833 50.4781 18.55C50.4781 19.9167 50.8115 21 51.4781 21.8C52.1448 22.6 53.0115 23 54.0781 23Z" fill="#3B82F6"/>
  <path d="M69.9219 25.7C68.5885 25.7 67.4219 25.4 66.4219 24.8C65.4219 24.2 64.6385 23.3667 64.0719 22.3C63.5052 21.2333 63.2219 19.9833 63.2219 18.55C63.2219 17.1167 63.5052 15.8667 64.0719 14.8C64.6385 13.7333 65.4219 12.9 66.4219 12.3C67.4219 11.7 68.5885 11.4 69.9219 11.4C71.2552 11.4 72.4219 11.7 73.4219 12.3C74.4219 12.9 75.2052 13.7333 75.7719 14.8C76.3385 15.8667 76.6219 17.1167 76.6219 18.55C76.6219 19.9833 76.3385 21.2333 75.7719 22.3C75.2052 23.3667 74.4219 24.2 73.4219 24.8C72.4219 25.4 71.2552 25.7 69.9219 25.7ZM69.9219 23C70.9885 23 71.8552 22.6 72.5219 21.8C73.1885 21 73.5219 19.9167 73.5219 18.55C73.5219 17.1833 73.1885 16.1 72.5219 15.3C71.8552 14.5 70.9885 14.1 69.9219 14.1C68.8552 14.1 67.9885 14.5 67.3219 15.3C66.6552 16.1 66.3219 17.1833 66.3219 18.55C66.3219 19.9167 66.6552 21 67.3219 21.8C67.9885 22.6 68.8552 23 69.9219 23Z" fill="#3B82F6"/>
  <path d="M78.8438 25.5V11.6H81.7438V13.85C82.0771 13.05 82.5938 12.4333 83.2938 12C83.9938 11.5667 84.8271 11.35 85.7938 11.35C87.1271 11.35 88.1938 11.7667 88.9938 12.6C89.7938 13.4333 90.1938 14.6167 90.1938 16.15V25.5H87.1938V16.75C87.1938 15.85 86.9771 15.15 86.5438 14.65C86.1104 14.15 85.5104 13.9 84.7438 13.9C83.9104 13.9 83.2438 14.1833 82.7438 14.75C82.2438 15.3167 81.9938 16.1 81.9938 17.1V25.5H78.8438Z" fill="#3B82F6"/>
  <path d="M92.5156 25.5V11.6H95.4156V13.85C95.749 13.05 96.2656 12.4333 96.9656 12C97.6656 11.5667 98.499 11.35 99.4656 11.35C100.799 11.35 101.866 11.7667 102.666 12.6C103.466 13.4333 103.866 14.6167 103.866 16.15V25.5H100.866V16.75C100.866 15.85 100.649 15.15 100.216 14.65C99.7823 14.15 99.1823 13.9 98.4156 13.9C97.5823 13.9 96.9156 14.1833 96.4156 14.75C95.9156 15.3167 95.6656 16.1 95.6656 17.1V25.5H92.5156Z" fill="#3B82F6"/>
  <path d="M114.688 25.5L110.188 20.35V25.5H107.188V7.5H110.188V16.65L114.638 11.6H118.438L112.938 17.65L118.538 25.5H114.688Z" fill="#3B82F6"/>
  <path d="M126.359 25.7C125.026 25.7 123.859 25.4 122.859 24.8C121.859 24.2 121.076 23.3667 120.509 22.3C119.943 21.2333 119.659 19.9833 119.659 18.55C119.659 17.1167 119.943 15.8667 120.509 14.8C121.076 13.7333 121.859 12.9 122.859 12.3C123.859 11.7 125.026 11.4 126.359 11.4C127.693 11.4 128.859 11.7 129.859 12.3C130.859 12.9 131.643 13.7333 132.209 14.8C132.776 15.8667 133.059 17.1167 133.059 18.55C133.059 19.9833 132.776 21.2333 132.209 22.3C131.643 23.3667 130.859 24.2 129.859 24.8C128.859 25.4 127.693 25.7 126.359 25.7ZM126.359 23C127.426 23 128.293 22.6 128.959 21.8C129.626 21 129.959 19.9167 129.959 18.55C129.959 17.1833 129.626 16.1 128.959 15.3C128.293 14.5 127.426 14.1 126.359 14.1C125.293 14.1 124.426 14.5 123.759 15.3C123.093 16.1 122.759 17.1833 122.759 18.55C122.759 19.9167 123.093 21 123.759 21.8C124.426 22.6 125.293 23 126.359 23Z" fill="#3B82F6"/>
  <path d="M142.031 25.7C140.698 25.7 139.531 25.4 138.531 24.8C137.531 24.2 136.748 23.3667 136.181 22.3C135.615 21.2333 135.331 19.9833 135.331 18.55C135.331 17.1167 135.615 15.8667 136.181 14.8C136.748 13.7333 137.531 12.9 138.531 12.3C139.531 11.7 140.698 11.4 142.031 11.4C143.365 11.4 144.531 11.7 145.531 12.3C146.531 12.9 147.315 13.7333 147.881 14.8C148.448 15.8667 148.731 17.1167 148.731 18.55C148.731 19.9833 148.448 21.2333 147.881 22.3C147.315 23.3667 146.531 24.2 145.531 24.8C144.531 25.4 143.365 25.7 142.031 25.7ZM142.031 23C143.098 23 143.965 22.6 144.631 21.8C145.298 21 145.631 19.9167 145.631 18.55C145.631 17.1833 145.298 16.1 144.631 15.3C143.965 14.5 143.098 14.1 142.031 14.1C140.965 14.1 140.098 14.5 139.431 15.3C138.765 16.1 138.431 17.1833 138.431 18.55C138.431 19.9167 138.765 21 139.431 21.8C140.098 22.6 140.965 23 142.031 23Z" fill="#3B82F6"/>
</svg>