<svg width="549" height="259" viewBox="0 0 549 259" fill="none" xmlns="http://www.w3.org/2000/svg">
<mask id="path-1-inside-1_2675_9374" fill="white">
<path fill-rule="evenodd" clip-rule="evenodd" d="M548.529 6C548.529 2.68629 545.843 0 542.529 0H292.011C288.697 0 286.011 2.6863 286.011 6.00001V136.841C286.011 140.155 288.697 142.841 292.011 142.841H406.057C410.85 142.841 413.708 148.182 411.05 152.169L346.278 249.327C343.62 253.314 346.478 258.655 351.27 258.655H468.107C470.113 258.655 471.987 257.653 473.1 255.984L548.528 142.841C548.528 142.841 548.528 142.841 548.528 142.841C548.529 142.841 548.529 142.841 548.529 142.84V142.839C548.529 142.839 548.53 142.839 548.53 142.839L548.53 142.838C548.53 142.838 548.53 142.838 548.53 142.838C548.53 142.838 548.529 142.838 548.529 142.838V6Z"/>
</mask>
<path d="M548.53 142.838L547.282 142.006L548.53 142.838ZM548.53 142.839L547.281 142.007L548.53 142.839ZM548.528 142.841L547.28 142.009L548.528 142.841ZM473.1 255.984L471.852 255.151L473.1 255.984ZM346.278 249.327L345.03 248.495L346.278 249.327ZM292.011 1.5H542.529V-1.5H292.011V1.5ZM287.511 136.841V6.00001H284.511V136.841H287.511ZM406.057 141.341H292.011V144.341H406.057V141.341ZM347.526 250.159L412.298 153.001L409.802 151.337L345.03 248.495L347.526 250.159ZM468.107 257.155H351.27V260.155H468.107V257.155ZM547.28 142.009L471.852 255.151L474.348 256.816L549.776 143.674L547.28 142.009ZM547.029 142.839V142.84H550.029V142.839H547.029ZM547.282 142.006L547.281 142.007L549.778 143.671L549.778 143.67L547.282 142.006ZM547.029 6V142.838H550.029V6H547.029ZM548.53 141.338C549.393 141.338 550.029 142.046 550.029 142.838H547.029C547.029 143.631 547.666 144.338 548.53 144.338V141.338ZM549.778 143.67C550.442 142.674 549.728 141.338 548.53 141.338V144.338C547.332 144.338 546.617 143.003 547.282 142.006L549.778 143.67ZM550.029 142.839C550.029 143.135 549.942 143.424 549.778 143.671L547.281 142.007C547.117 142.253 547.029 142.543 547.029 142.839H550.029ZM548.528 144.341C549.357 144.341 550.029 143.669 550.029 142.84H547.029C547.029 142.012 547.701 141.341 548.528 141.341V144.341ZM549.776 143.674C549.498 144.091 549.03 144.341 548.528 144.341V141.341C548.027 141.341 547.558 141.592 547.28 142.009L549.776 143.674ZM468.107 260.155C470.615 260.155 472.957 258.902 474.348 256.816L471.852 255.151C471.017 256.403 469.612 257.155 468.107 257.155V260.155ZM345.03 248.495C341.707 253.479 345.28 260.155 351.27 260.155V257.155C347.676 257.155 345.532 253.15 347.526 250.159L345.03 248.495ZM406.057 144.341C409.652 144.341 411.795 148.347 409.802 151.337L412.298 153.001C415.621 148.017 412.048 141.341 406.057 141.341V144.341ZM284.511 136.841C284.511 140.983 287.869 144.341 292.011 144.341V141.341C289.525 141.341 287.511 139.326 287.511 136.841H284.511ZM542.529 1.5C545.015 1.5 547.029 3.51471 547.029 6H550.029C550.029 1.85787 546.672 -1.5 542.529 -1.5V1.5ZM292.011 -1.5C287.869 -1.5 284.511 1.85788 284.511 6.00001H287.511C287.511 3.51473 289.525 1.5 292.011 1.5V-1.5Z" fill="#5648FF" mask="url(#path-1-inside-1_2675_9374)"/>
<mask id="path-3-inside-2_2675_9374" fill="white">
<path fill-rule="evenodd" clip-rule="evenodd" d="M262.519 6C262.519 2.68629 259.832 0 256.519 0H6C2.68629 0 0 2.6863 0 6.00001V136.841C0 140.155 2.68629 142.841 6 142.841H120.049C124.842 142.841 127.7 148.182 125.042 152.169L60.2697 249.327C57.6115 253.314 60.4699 258.655 65.262 258.655H182.099C184.105 258.655 185.979 257.653 187.091 255.984L262.521 142.84C262.521 142.839 262.521 142.838 262.52 142.838C262.519 142.838 262.519 142.838 262.519 142.837V6Z"/>
</mask>
<path d="M262.521 142.84L263.769 143.672L262.521 142.84ZM187.091 255.984L188.34 256.816L187.091 255.984ZM60.2697 249.327L59.0217 248.495L60.2697 249.327ZM6 1.5H256.519V-1.5H6V1.5ZM1.5 136.841V6.00001H-1.5V136.841H1.5ZM120.049 141.341H6V144.341H120.049V141.341ZM61.5178 250.159L126.29 153.001L123.794 151.337L59.0217 248.495L61.5178 250.159ZM182.099 257.155H65.262V260.155H182.099V257.155ZM261.273 142.008L185.843 255.151L188.34 256.816L263.769 143.672L261.273 142.008ZM261.019 6V142.837H264.019V6H261.019ZM262.52 141.338C263.348 141.338 264.019 142.01 264.019 142.837H261.019C261.019 143.666 261.69 144.338 262.52 144.338V141.338ZM263.769 143.672C264.434 142.674 263.719 141.338 262.52 141.338V144.338C261.323 144.338 260.608 143.004 261.273 142.008L263.769 143.672ZM182.099 260.155C184.607 260.155 186.949 258.902 188.34 256.816L185.843 255.151C185.009 256.403 183.604 257.155 182.099 257.155V260.155ZM59.0217 248.495C55.6989 253.479 59.2718 260.155 65.262 260.155V257.155C61.6679 257.155 59.5241 253.15 61.5178 250.159L59.0217 248.495ZM120.049 144.341C123.643 144.341 125.787 148.347 123.794 151.337L126.29 153.001C129.613 148.017 126.04 141.341 120.049 141.341V144.341ZM-1.5 136.841C-1.5 140.983 1.85786 144.341 6 144.341V141.341C3.51472 141.341 1.5 139.326 1.5 136.841H-1.5ZM256.519 1.5C259.004 1.5 261.019 3.51471 261.019 6H264.019C264.019 1.85787 260.661 -1.5 256.519 -1.5V1.5ZM6 -1.5C1.85786 -1.5 -1.5 1.85788 -1.5 6.00001H1.5C1.5 3.51473 3.51472 1.5 6 1.5V-1.5Z" fill="#5648FF" mask="url(#path-3-inside-2_2675_9374)"/>
</svg>
