<svg width="32" height="32" viewBox="0 0 32 32" fill="none" xmlns="http://www.w3.org/2000/svg">
<path fill-rule="evenodd" clip-rule="evenodd" d="M6.69224 0H0V15.5178C0 24.621 7.379 32 16.4822 32C17.6584 32 18.8128 31.8685 19.9379 31.6128V19.7114C18.9662 20.7489 17.6073 21.3333 16.19 21.3333C13.1361 21.3333 10.6667 18.8639 10.6667 15.81V3.97443C10.6667 1.77534 8.89132 0 6.69224 0Z" fill="#D4F941"/>
<path fill-rule="evenodd" clip-rule="evenodd" d="M21.334 16.2338V31.2256C27.6975 29.1288 32.0007 23.189 32.0007 16.4895V0H26.4847C23.6427 0 21.334 2.30868 21.334 5.15069V16.2338ZM30.3933 6.48037C30.3933 4.42009 28.7203 2.75434 26.6673 2.75434C24.6143 2.75434 22.9413 4.4274 22.9413 6.48037C22.9413 8.53333 24.6143 10.2064 26.6673 10.2064C28.7203 10.2064 30.3933 8.53333 30.3933 6.48037Z" fill="#00FFED"/>
</svg>
